<svg width="24" height="24" viewBox="0 0 24 24" fill="none" xmlns="http://www.w3.org/2000/svg">
<path fill-rule="evenodd" clip-rule="evenodd" d="M4.51934 1.49951C4.04623 1.49951 3.63787 1.83105 3.54067 2.29406L1.02694 14.2685C1.00932 14.3428 1 14.4203 1 14.5V21C1 21.5523 1.44772 22 2 22H22C22.5523 22 23 21.5523 23 21V14.5C23 14.4273 22.9922 14.3565 22.9775 14.2882L20.4896 2.29637C20.3933 1.83226 19.9844 1.49951 19.5104 1.49951H4.51934ZM20.7714 13.5L18.6966 3.49951H5.33121L3.23185 13.5H20.7714ZM3 15.5V20H21V15.5H3ZM17.75 19C18.4403 19 19 18.4403 19 17.75C19 17.0597 18.4403 16.5 17.75 16.5C17.0597 16.5 16.5 17.0597 16.5 17.75C16.5 18.4403 17.0597 19 17.75 19Z" fill="#005FC1"/>
</svg>
