<svg width="24" height="24" viewBox="0 0 24 24" fill="none" xmlns="http://www.w3.org/2000/svg">
<path fill-rule="evenodd" clip-rule="evenodd" d="M19.8429 5.5713C20.555 6.65889 20.6747 7.84742 20.52 8.86857C20.3352 10.0879 19.7487 11.1655 19.2071 11.7071L19.2071 11.7071L17.7071 13.2071C17.3166 13.5977 16.6834 13.5977 16.2929 13.2071L10.7929 7.70714C10.6054 7.5196 10.5 7.26525 10.5 7.00003C10.5 6.73481 10.6054 6.48046 10.7929 6.29292L12.2929 4.79294L12.2929 4.79292C12.8345 4.25128 13.9122 3.66478 15.1314 3.48004C16.1526 3.32532 17.3411 3.44502 18.4287 4.15708L20.293 2.29285L21.7072 3.70706L19.8429 5.5713ZM13.7071 6.20712C13.9155 5.99873 14.5879 5.58523 15.4311 5.45747C16.2218 5.33766 17.0655 5.47975 17.7929 6.20713L17.7929 6.20714C18.5203 6.93451 18.6623 7.77818 18.5425 8.56895C18.4148 9.41214 18.0013 10.0845 17.7929 10.2929L17 11.0858L12.9142 7.00003L13.7071 6.20714L13.7071 6.20712Z" fill="#005FC1"/>
<path fill-rule="evenodd" clip-rule="evenodd" d="M8.00002 11.0858L7.70711 10.7929C7.51958 10.6054 7.26522 10.5 7.00001 10.5C6.73479 10.5 6.48044 10.6054 6.2929 10.7929L4.79288 12.2929C4.25129 12.8345 3.66479 13.9122 3.48004 15.1315C3.32532 16.1526 3.44501 17.3412 4.15708 18.4287L2.29297 20.2928L3.70718 21.7071L5.57128 19.843C6.65887 20.555 7.8474 20.6747 8.86856 20.52C10.0879 20.3353 11.1655 19.7487 11.7071 19.2071L13.2071 17.7071C13.5976 17.3166 13.5976 16.6834 13.2071 16.2929L12.9142 16L14.2072 14.7071L12.793 13.2928L11.5 14.5858L9.41423 12.5L10.7072 11.2071L9.29297 9.79285L8.00002 11.0858ZM6.20714 13.7071L7.00001 12.9142L11.0858 17L10.2929 17.7929C10.0845 18.0013 9.41215 18.4148 8.56895 18.5426C7.77817 18.6624 6.93449 18.5203 6.20711 17.7929C5.47975 17.0655 5.33766 16.2219 5.45747 15.4311C5.58522 14.5879 5.99872 13.9155 6.20714 13.7071Z" fill="#005FC1"/>
</svg>
