<svg xmlns="http://www.w3.org/2000/svg" fill="currentColor" viewBox="0 0 24 24" class="design-iconfont">
  <path
    d="M4 2C2.89543 2 2 2.89543 2 4V20C2 21.1046 2.89543 22 4 22H16.05C16.0172 21.8384 16 21.6712 16 21.5V20H4V4L20 4V10.05C21.1411 10.2816 22 11.2905 22 12.5V4C22 2.89543 21.1046 2 20 2H4Z" />
  <path
    d="M20 21.5C20 21.7761 19.7761 22 19.5 22H18.5C18.2239 22 18 21.7761 18 21.5V18H14.5C14.2239 18 14 17.7761 14 17.5V16.5C14 16.2239 14.2239 16 14.5 16H18V12.5C18 12.2264 18.2197 12.0042 18.4923 12.0001C18.4949 12 18.4974 12 18.5 12H19.5C19.7761 12 20 12.2239 20 12.5V16H23.5C23.7761 16 24 16.2239 24 16.5V17.5C24 17.7761 23.7761 18 23.5 18H20V21.5Z" />
  <path
    d="M15 12.0001H16.05C16.0172 12.1616 16 12.3288 16 12.5V14H14.5C13.815 14 13.1944 14.2755 12.7428 14.7217L10.9412 11.1185L9.58032 13.5001H5.5C5.22386 13.5001 5 13.2762 5 13.0001V12.0001C5 11.7239 5.22386 11.5001 5.5 11.5001H8.41968L11.0588 6.88159L14.1708 13.1056L15 12.0001Z" />
</svg>
