<svg width="16" height="16" viewBox="0 0 16 16" xmlns="http://www.w3.org/2000/svg">
	<path
		d="M2.66667 13.3333V9.33325C2.66667 7.91876 3.22857 6.56221 4.22876 5.56202C5.22896 4.56182 6.58551 3.99992 8 3.99992C9.41449 3.99992 10.771 4.56182 11.7712 5.56202C12.7714 6.56221 13.3333 7.91876 13.3333 9.33325V13.3333H13.6667C13.8508 13.3333 14 13.4825 14 13.6666V14.3333C14 14.5173 13.8508 14.6666 13.6667 14.6666H2.33333C2.14924 14.6666 2 14.5173 2 14.3333V13.6666C2 13.4825 2.14924 13.3333 2.33333 13.3333H2.66667ZM4 13.3333H12V9.33325C12 8.27239 11.5786 7.25497 10.8284 6.50483C10.0783 5.75468 9.06087 5.33325 8 5.33325C6.93913 5.33325 5.92172 5.75468 5.17157 6.50483C4.42143 7.25497 4 8.27239 4 9.33325V13.3333ZM7.33333 1.66659C7.33333 1.48249 7.48257 1.33325 7.66667 1.33325H8.33333C8.51743 1.33325 8.66667 1.48249 8.66667 1.66659V2.99992C8.66667 3.18401 8.51743 3.33325 8.33333 3.33325H7.66667C7.48257 3.33325 7.33333 3.18401 7.33333 2.99992V1.66659ZM12.9496 3.44095C13.0798 3.31078 13.2909 3.31078 13.421 3.44095L13.8924 3.91227C14.0225 4.04243 14.0225 4.25344 13.8924 4.38362L12.9503 5.32619C12.8202 5.45638 12.6091 5.45645 12.4789 5.32633L12.0072 4.85495C11.8769 4.72479 11.8769 4.51367 12.0071 4.38347L12.9496 3.44095ZM2.1077 4.38362C1.97753 4.25345 1.97753 4.04239 2.1077 3.91222L2.57902 3.4409C2.70917 3.31075 2.92019 3.31072 3.05037 3.44084L3.9931 4.38313C4.12323 4.5132 4.12337 4.72411 3.99341 4.85434L3.52237 5.32638C3.39223 5.45679 3.18099 5.45691 3.05071 5.32663L2.1077 4.38362ZM4.66667 9.33325C4.66667 8.4492 5.01786 7.60135 5.64298 6.97623C6.2681 6.35111 7.11595 5.99992 8 5.99992V7.33325C7.46957 7.33325 6.96086 7.54397 6.58579 7.91904C6.21071 8.29411 6 8.80282 6 9.33325H4.66667Z" />
</svg>
