<svg width="20" height="20" viewBox="0 0 20 20" fill="none" xmlns="http://www.w3.org/2000/svg">
<g clip-path="url(#clip0_133_7650)">
<path d="M13.4657 9.78376L18.8724 19.1486C18.9222 19.2349 18.9484 19.3328 18.9484 19.4324C18.9484 19.5321 18.9222 19.6299 18.8724 19.7162C18.8226 19.8025 18.7509 19.8741 18.6647 19.924C18.5784 19.9738 18.4805 20 18.3809 20H7.56755C7.46793 20 7.37005 19.9738 7.28378 19.924C7.1975 19.8741 7.12585 19.8025 7.07604 19.7162C7.02622 19.6299 7 19.5321 7 19.4324C7 19.3328 7.02623 19.2349 7.07604 19.1486L12.4827 9.78376C12.5325 9.69748 12.6042 9.62584 12.6904 9.57603C12.7767 9.52622 12.8746 9.5 12.9742 9.5C13.0738 9.5 13.1717 9.52622 13.258 9.57603C13.3443 9.62584 13.4159 9.69748 13.4657 9.78376ZM12.4066 17.1622V18.2973H13.5418V17.1622H12.4066ZM12.4066 13.1892V16.027H13.5418V13.1892H12.4066Z" fill="#FF243A"/>
<path fill-rule="evenodd" clip-rule="evenodd" d="M19 1C19 0.448 18.552 0 18 0H2C1.448 0 1 0.448 1 1V19C1 19.552 1.448 20 2 20H5.17509C5.06007 19.7645 5 19.5064 5 19.2443C5 18.9361 5.08308 18.6334 5.2409 18.3665L5.4576 18H3V2H17V12.0091L19 15.3915V1ZM14 7.29655V6H6V8H11.3705L11.4428 7.87782C11.6006 7.61095 11.8276 7.38927 12.101 7.23519C12.3743 7.08111 12.6844 7 13 7C13.3156 7 13.6257 7.08111 13.899 7.23519C13.9334 7.25459 13.9671 7.27505 14 7.29655ZM10.188 10H6V12H9.00537L10.188 10Z" fill="#FF243A"/>
</g>
<defs>
<clipPath id="clip0_133_7650">
<rect width="20" height="20" fill="white"/>
</clipPath>
</defs>
</svg>
