<?xml version="1.0" standalone="no"?><!DOCTYPE svg PUBLIC "-//W3C//DTD SVG 1.1//EN" "http://www.w3.org/Graphics/SVG/1.1/DTD/svg11.dtd"><svg class="icon" width="32px" height="29.34px" viewBox="0 0 1117 1024" version="1.1" xmlns="http://www.w3.org/2000/svg"><path d="M1093.067869 824.040727L656.006051 105.751273c-52.596364-88.436364-139.915636-88.436364-196.049455 0L22.708596 824.040727c-52.503273 88.436364-10.519273 160.581818 97.931637 160.581818h878.033454c105.006545 0.093091 150.434909-72.238545 94.394182-160.581818z m-154.251636 115.246546H177.891142c-168.866909 0-130.327273-55.854545-84.992-133.771637l395.170909-658.711272c48.500364-77.917091 93.090909-77.917091 138.426182 0l394.146909 658.711272c48.500364 77.917091 98.955636 133.771636-81.92 133.771637zM595.683142 666.717091c9.309091-110.592 37.236364-260.375273 37.236363-280.017455 0-22.714182-9.309091-42.263273-21.783272-58.647272-12.288-16.197818-30.999273-22.714182-52.689455-22.714182-21.783273 0-37.329455 6.423273-52.782545 22.714182-15.639273 16.290909-21.783273 35.933091-21.783273 58.647272 0 19.642182 31.092364 169.425455 40.494545 280.017455h71.307637z m-37.236364 48.872727c-21.783273 0-37.329455 6.516364-52.782545 22.807273a73.262545 73.262545 0 0 0-21.783273 55.296c0 22.807273 6.237091 39.098182 21.783273 55.389091a66.280727 66.280727 0 0 0 52.782545 22.807273c21.690182 0 37.236364-6.516364 52.689455-22.807273a73.262545 73.262545 0 0 0 21.783272-55.389091 73.448727 73.448727 0 0 0-21.783272-55.296 66.094545 66.094545 0 0 0-52.689455-22.807273z" /></svg>