<svg xmlns="http://www.w3.org/2000/svg" viewBox="0 0 24 25" class="design-iconfont">
  <g clip-path="url(#clip0_372_9958)">
    <path
      d="M12.25 0.5C12.5262 0.5 12.75 0.723858 12.75 1V3C12.75 3.27614 12.5262 3.5 12.25 3.5H11.75C11.4739 3.5 11.25 3.27614 11.25 3V1C11.25 0.723858 11.4739 0.5 11.75 0.5H12.25Z" />
    <path
      d="M21.2981 4.05686C21.4934 4.25213 21.4934 4.56871 21.2981 4.76397L19.8839 6.17818C19.6886 6.37345 19.3721 6.37345 19.1768 6.17818L18.8232 5.82463C18.628 5.62937 18.628 5.31279 18.8232 5.11752L20.2375 3.70331C20.4327 3.50805 20.7493 3.50805 20.9446 3.70331L21.2981 4.05686Z" />
    <path
      d="M5.1768 5.82474C5.37206 5.62948 5.37206 5.3129 5.1768 5.11764L3.76259 3.70342C3.56733 3.50816 3.25074 3.50816 3.05548 3.70342L2.70193 4.05698C2.50667 4.25224 2.50667 4.56882 2.70193 4.76408L4.11614 6.1783C4.3114 6.37356 4.62799 6.37356 4.82325 6.1783L5.1768 5.82474Z" />
    <path fill-rule="evenodd" clip-rule="evenodd"
      d="M12 4.25C7.16751 4.25 3.25 8.16751 3.25 13V21.25H2.5C2.22386 21.25 2 21.4739 2 21.75V22.25C2 22.5261 2.22386 22.75 2.5 22.75H21.5C21.7761 22.75 22 22.5261 22 22.25V21.75C22 21.4739 21.7761 21.25 21.5 21.25H20.75V13C20.75 8.16751 16.8325 4.25 12 4.25ZM16.2171 12.0012C16.2535 12.2749 16.4739 12.5 16.75 12.5H17.25C17.5261 12.5 17.7525 12.2754 17.7265 12.0005C17.4905 9.49971 15.5003 7.50947 12.9995 7.27345C12.7246 7.2475 12.5 7.47386 12.5 7.75V8.25C12.5 8.52614 12.7251 8.7465 12.9988 8.78288C14.6709 9.00512 15.9949 10.3291 16.2171 12.0012Z" />
  </g>
  <defs>
    <clipPath id="clip0_372_9958">
      <path fill="#fff" transform="translate(0 .5)" d="M0 0H24V24H0z" />
    </clipPath>
  </defs>
</svg>
