<svg width="20" height="20" viewBox="0 0 20 20" fill="none" xmlns="http://www.w3.org/2000/svg">
<path d="M10 1.66663C14.6 1.66663 18.3334 5.39996 18.3334 9.99996C18.3334 14.6 14.6 18.3333 10 18.3333C5.40002 18.3333 1.66669 14.6 1.66669 9.99996C1.66669 5.39996 5.40002 1.66663 10 1.66663ZM10 16.6666C13.6834 16.6666 16.6667 13.6833 16.6667 9.99996C16.6667 6.31663 13.6834 3.33329 10 3.33329C6.31669 3.33329 3.33335 6.31663 3.33335 9.99996C3.33335 13.6833 6.31669 16.6666 10 16.6666ZM10 9.16663H12.8334C13.1095 9.16663 13.3334 9.39048 13.3334 9.66663V10.3333C13.3334 10.6094 13.1095 10.8333 12.8334 10.8333H10V13.3333L6.66669 9.99996L10 6.66663V9.16663Z" fill="#005FC1"/>
</svg>
