<?xml version="1.0" standalone="no"?><!DOCTYPE svg PUBLIC "-//W3C//DTD SVG 1.1//EN" "http://www.w3.org/Graphics/SVG/1.1/DTD/svg11.dtd"><svg class="icon" width="16px" height="16.00px" viewBox="0 0 1024 1024" version="1.1" xmlns="http://www.w3.org/2000/svg"><path d="M341.572 672.937c0.026 0.026 0.035 0.052 0.061 0.061 18.475 18.44 48.393 18.413 66.823-0.061L925.79 155.7c18.493-18.5 18.493-48.498 0-66.999-0.052-0.061-0.114-0.114-0.158-0.158-18.5-18.413-48.419-18.343-66.823 0.158L341.572 605.937c-18.484 18.501-18.484 48.499 0 67zM914.645 440.923h-0.202c-26.042 0-47.154 21.111-47.154 47.153v379.187H156.755V156.579l379.16 0.176h0.036c26.094-0.07 47.188-21.296 47.118-47.39v-0.203c0-26.042-21.112-47.153-47.154-47.153H109.057a47.204 47.204 0 0 0-33.416 13.887 46.869 46.869 0 0 0-13.64 33.231v805.808a47.7 47.7 0 0 0 13.877 33.407 46.852 46.852 0 0 0 33.24 13.64h805.834a47.7 47.7 0 0 0 33.408-13.878A46.949 46.949 0 0 0 962 914.83V488.076c-0.061-26.095-21.26-47.206-47.355-47.153z" /></svg>