<svg width="24" height="24" viewBox="0 0 24 24" fill="currentColor" xmlns="http://www.w3.org/2000/svg">
   <path
      d="M12.3639 10.95L16.9604 6.35354C17.1556 6.15828 17.4722 6.15828 17.6675 6.35354L18.3744 7.06043C18.5696 7.25569 18.5696 7.57228 18.3744 7.76754L13.7779 12.364L18.3744 16.9604C18.5696 17.1557 18.5696 17.4723 18.3744 17.6675L17.6675 18.3744C17.4722 18.5697 17.1556 18.5697 16.9604 18.3744L12.3639 13.778L7.76748 18.3744C7.57222 18.5697 7.25563 18.5697 7.06037 18.3744L6.35348 17.6675C6.15822 17.4723 6.15822 17.1557 6.35348 16.9604L10.9499 12.364L6.35348 7.76754C6.15822 7.57228 6.15822 7.25569 6.35348 7.06043L7.06037 6.35354C7.25563 6.15828 7.57222 6.15828 7.76748 6.35354L12.3639 10.95Z" />
</svg>
