<svg xmlns="http://www.w3.org/2000/svg" viewBox="0 0 24 25" class="design-iconfont">
  <path fill-rule="evenodd" clip-rule="evenodd"
    d="M3 2.25C2.0335 2.25 1.25 3.0335 1.25 4V8.25H22.75V4C22.75 3.0335 21.9665 2.25 21 2.25H3ZM5 4.75C4.72386 4.75 4.5 4.97386 4.5 5.25V5.75C4.5 6.02614 4.72386 6.25 5 6.25H10C10.2761 6.25 10.5 6.02614 10.5 5.75V5.25C10.5 4.97386 10.2761 4.75 10 4.75H5ZM12.75 4.75C12.3358 4.75 12 5.08579 12 5.5C12 5.91421 12.3358 6.25 12.75 6.25C13.1642 6.25 13.5 5.91421 13.5 5.5C13.5 5.08579 13.1642 4.75 12.75 4.75ZM15.75 4.75C15.3358 4.75 15 5.08579 15 5.5C15 5.91421 15.3358 6.25 15.75 6.25C16.1642 6.25 16.5 5.91421 16.5 5.5C16.5 5.08579 16.1642 4.75 15.75 4.75ZM18.75 4.75C18.3358 4.75 18 5.08579 18 5.5C18 5.91421 18.3358 6.25 18.75 6.25C19.1642 6.25 19.5 5.91421 19.5 5.5C19.5 5.08579 19.1642 4.75 18.75 4.75Z" />
  <path fill-rule="evenodd" clip-rule="evenodd"
    d="M1.25 15.25H22.75V9.75H1.25V15.25ZM5.25 11.75C5.66421 11.75 6 12.0858 6 12.5C6 12.9142 5.66421 13.25 5.25 13.25C4.83579 13.25 4.5 12.9142 4.5 12.5C4.5 12.0858 4.83579 11.75 5.25 11.75ZM8.25 11.75C8.66421 11.75 9 12.0858 9 12.5C9 12.9142 8.66421 13.25 8.25 13.25C7.83579 13.25 7.5 12.9142 7.5 12.5C7.5 12.0858 7.83579 11.75 8.25 11.75ZM11.25 11.75C11.6642 11.75 12 12.0858 12 12.5C12 12.9142 11.6642 13.25 11.25 13.25C10.8358 13.25 10.5 12.9142 10.5 12.5C10.5 12.0858 10.8358 11.75 11.25 11.75ZM19 11.75C19.2761 11.75 19.5 11.9739 19.5 12.25V12.75C19.5 13.0261 19.2761 13.25 19 13.25H14C13.7239 13.25 13.5 13.0261 13.5 12.75V12.25C13.5 11.9739 13.7239 11.75 14 11.75H19Z" />
  <path fill-rule="evenodd" clip-rule="evenodd"
    d="M1.25 21V16.75H22.75V21C22.75 21.9665 21.9665 22.75 21 22.75H3C2.0335 22.75 1.25 21.9665 1.25 21ZM6 19.5C6 19.0858 5.66421 18.75 5.25 18.75C4.83579 18.75 4.5 19.0858 4.5 19.5C4.5 19.9142 4.83579 20.25 5.25 20.25C5.66421 20.25 6 19.9142 6 19.5ZM9 19.5C9 19.0858 8.66421 18.75 8.25 18.75C7.83579 18.75 7.5 19.0858 7.5 19.5C7.5 19.9142 7.83579 20.25 8.25 20.25C8.66421 20.25 9 19.9142 9 19.5ZM12 19.5C12 19.0858 11.6642 18.75 11.25 18.75C10.8358 18.75 10.5 19.0858 10.5 19.5C10.5 19.9142 10.8358 20.25 11.25 20.25C11.6642 20.25 12 19.9142 12 19.5ZM19.5 19.25C19.5 18.9739 19.2761 18.75 19 18.75H14C13.7239 18.75 13.5 18.9739 13.5 19.25V19.75C13.5 20.0261 13.7239 20.25 14 20.25H19C19.2761 20.25 19.5 20.0261 19.5 19.75V19.25Z" />
</svg>
