<svg xmlns="http://www.w3.org/2000/svg" viewBox="0 0 24 25" class="design-iconfont">
  <path
    d="M4.5 5.75C4.5 5.47386 4.72386 5.25 5 5.25H10C10.2761 5.25 10.5 5.47386 10.5 5.75V6.25C10.5 6.52614 10.2761 6.75 10 6.75H5C4.72386 6.75 4.5 6.52614 4.5 6.25V5.75Z" />
  <path
    d="M12 6C12 5.58579 12.3358 5.25 12.75 5.25C13.1642 5.25 13.5 5.58579 13.5 6C13.5 6.41421 13.1642 6.75 12.75 6.75C12.3358 6.75 12 6.41421 12 6Z" />
  <path
    d="M15.75 5.25C15.3358 5.25 15 5.58579 15 6C15 6.41421 15.3358 6.75 15.75 6.75C16.1642 6.75 16.5 6.41421 16.5 6C16.5 5.58579 16.1642 5.25 15.75 5.25Z" />
  <path
    d="M18 6C18 5.58579 18.3358 5.25 18.75 5.25C19.1642 5.25 19.5 5.58579 19.5 6C19.5 6.41421 19.1642 6.75 18.75 6.75C18.3358 6.75 18 6.41421 18 6Z" />
  <path
    d="M19.5 12.25C19.5 11.9739 19.2761 11.75 19 11.75H14C13.7239 11.75 13.5 11.9739 13.5 12.25V12.75C13.5 13.0261 13.7239 13.25 14 13.25H19C19.2761 13.25 19.5 13.0261 19.5 12.75V12.25Z" />
  <path
    d="M12 12.5C12 12.0858 11.6642 11.75 11.25 11.75C10.8358 11.75 10.5 12.0858 10.5 12.5C10.5 12.9142 10.8358 13.25 11.25 13.25C11.6642 13.25 12 12.9142 12 12.5Z" />
  <path
    d="M8.25 11.75C8.66421 11.75 9 12.0858 9 12.5C9 12.9142 8.66421 13.25 8.25 13.25C7.83579 13.25 7.5 12.9142 7.5 12.5C7.5 12.0858 7.83579 11.75 8.25 11.75Z" />
  <path
    d="M6 12.5C6 12.0858 5.66421 11.75 5.25 11.75C4.83579 11.75 4.5 12.0858 4.5 12.5C4.5 12.9142 4.83579 13.25 5.25 13.25C5.66421 13.25 6 12.9142 6 12.5Z" />
  <path
    d="M19 18.25C19.2761 18.25 19.5 18.4739 19.5 18.75V19.25C19.5 19.5261 19.2761 19.75 19 19.75H14C13.7239 19.75 13.5 19.5261 13.5 19.25V18.75C13.5 18.4739 13.7239 18.25 14 18.25H19Z" />
  <path
    d="M11.25 18.25C11.6642 18.25 12 18.5858 12 19C12 19.4142 11.6642 19.75 11.25 19.75C10.8358 19.75 10.5 19.4142 10.5 19C10.5 18.5858 10.8358 18.25 11.25 18.25Z" />
  <path
    d="M9 19C9 18.5858 8.66421 18.25 8.25 18.25C7.83579 18.25 7.5 18.5858 7.5 19C7.5 19.4142 7.83579 19.75 8.25 19.75C8.66421 19.75 9 19.4142 9 19Z" />
  <path
    d="M5.25 18.25C5.66421 18.25 6 18.5858 6 19C6 19.4142 5.66421 19.75 5.25 19.75C4.83579 19.75 4.5 19.4142 4.5 19C4.5 18.5858 4.83579 18.25 5.25 18.25Z" />
  <path fill-rule="evenodd" clip-rule="evenodd"
    d="M3 2C2.0335 2 1.25 2.7835 1.25 3.75V21.25C1.25 22.2165 2.0335 23 3 23H21C21.9665 23 22.75 22.2165 22.75 21.25V3.75C22.75 2.7835 21.9665 2 21 2H3ZM2.75 3.75C2.75 3.61193 2.86193 3.5 3 3.5H21C21.1381 3.5 21.25 3.61193 21.25 3.75V8.5H2.75V3.75ZM2.75 10V15H21.25V10H2.75ZM21.25 16.5H2.75V21.25C2.75 21.3881 2.86193 21.5 3 21.5H21C21.1381 21.5 21.25 21.3881 21.25 21.25V16.5Z" />
</svg>
