<?xml version="1.0" standalone="no"?><!DOCTYPE svg PUBLIC "-//W3C//DTD SVG 1.1//EN" "http://www.w3.org/Graphics/SVG/1.1/DTD/svg11.dtd"><svg class="icon" width="16px" height="16.00px" viewBox="0 0 1024 1024" version="1.1" xmlns="http://www.w3.org/2000/svg"><path d="M381.525333 521.557333c-109.994667-67.754667-154.453333-208.810667-104.106666-330.24C327.765333 69.717333 457.472 5.205333 580.949333 40.362667c123.477333 35.157333 202.837333 158.976 185.685334 289.877333-17.237333 130.901333-125.525333 228.608-253.696 228.693333-204.202667 0-369.749333 170.666667-369.749334 381.269334 0 16.213333-12.8 29.354667-28.501333 29.354666a28.928 28.928 0 0 1-28.416-29.354666c0-190.805333 119.210667-359.850667 295.253333-418.730667z m131.413334-21.333333c110.08 0 199.168-91.818667 199.168-205.226667 0-113.493333-89.173333-205.312-199.168-205.312-109.909333 0-199.082667 91.904-199.082667 205.312 0 113.408 89.173333 205.312 199.082667 205.312zM757.333333 563.541333c19.882667 0 38.741333 12.288 53.76 34.816l6.058667 10.24 144.042667 251.050667c30.72 56.746667 6.570667 104.362667-53.162667 109.482667l-10.922667 0.512H617.557333c-63.829333 0-93.269333-44.544-68.864-100.181334l4.864-9.898666 143.957334-250.88c15.701333-29.013333 37.205333-45.141333 59.818666-45.141334z m0 44.032c-3.925333 0-10.752 5.632-17.408 15.872l-147.882666 257.536c-7.850667 14.677333-9.813333 27.562667-5.973334 34.133334 3.157333 5.205333 11.861333 9.045333 23.893334 10.154666l7.68 0.341334h279.466666c16.042667 0 27.818667-4.266667 31.573334-10.496 3.242667-5.461333 2.389333-15.36-2.56-26.965334l-3.413334-7.082666-144.213333-251.392c-7.594667-13.994667-16.384-22.101333-21.162667-22.101334zM757.333333 861.013333c10.496 0 19.2 7.168 21.504 16.896l0.512 5.12a22.016 22.016 0 0 1-43.434666 5.034667l-0.597334-5.12c0-12.117333 9.898667-22.016 22.016-22.016z m0-188.501333c10.496 0 19.2 7.253333 21.504 16.981333l0.512 5.12v120.576a22.016 22.016 0 0 1-43.434666 5.12l-0.597334-5.12V694.613333c0-12.117333 9.898667-22.016 22.016-22.016z" /></svg>