<?xml version="1.0" standalone="no"?><!DOCTYPE svg PUBLIC "-//W3C//DTD SVG 1.1//EN" "http://www.w3.org/Graphics/SVG/1.1/DTD/svg11.dtd"><svg t="1607067764475" class="icon" viewBox="0 0 1024 1024" version="1.1" xmlns="http://www.w3.org/2000/svg" p-id="1676" xmlns:xlink="http://www.w3.org/1999/xlink" width="280" height="280"><defs><style type="text/css"></style></defs><path d="M425.13897178 77.6792233H338.27273169V-9.18701678h86.86624009v86.86624008z m-347.45974848 521.18701677H-9.18701678v86.86624011h86.86624008v-86.86624011z m0-130.29675418H-9.18701678v86.8662401h86.86624008V468.56948589z m0-130.2967542H-9.18701678v86.86624009h86.86624008V338.27273169z m0-217.16299426c0-23.93811967 19.46633507-43.43051411 43.43051413-43.43051413h173.73248014V-9.18701678H121.10973743C49.13381039-9.18701678-9.18701678 49.15465787-9.18701678 121.10973743v173.73248015h86.86624008V121.10973743z m477.75129081-130.29675423H468.56948589v86.8662401h86.8662401V-9.18701678z m130.29154231 0h-86.8610282v86.8662401h86.8610282V-9.18701678z m-144.62418526 504.24322688c0-14.14501564-9.2927645-17.22001903-23.41693267-17.22001903h-20.18557317v34.41919059h20.18557317c14.20234621 0 23.41693266-3.00724909 23.41693267-17.19917156zM164.54546339 164.54546339h694.91949695v694.91949695H164.54546339V164.54546339z m436.14493126 373.33147199c0 41.09559627 23.79739918 60.9893047 64.59591886 60.98930472 39.74572188 0 64.72621561-19.85201347 64.72621561-60.98930473V445.40793488h-39.40173847v92.46378863c0 20.73281952-7.00475351 26.80464827-25.32447714 26.80464827-19.21095344 0-25.31926527-9.15725587-25.31926526-26.80464827V445.40793488h-39.27144173v92.46900049z m-142.5967678 57.80485202h39.40173847v-50.94081901h28.75909958c34.22113952 0 53.18713507-20.60252276 53.18713507-49.68997017 0-29.54088009-19.46633507-49.64306334-53.18713507-49.64306334H458.09362685v150.27385252z m-162.36539133-74.52453153c0 43.85788747 28.03464962 77.70898417 73.92516646 77.70898423 35.80033618 0 62.8603661-20.7380314 66.93083669-66.08130188h-38.25512704c-6.40538842 47.62606958-63.19392577 41.81483437-63.19392577-11.62768235 0-24.42803547 9.84001087-44.72305793 34.523428-44.72305788 13.32154017 0 25.02740053 8.05755129 27.48740325 24.8762563h38.25512703c-3.89847888-40.03758663-31.68295875-59.27459943-65.74253028-59.27459943-45.59865209 0.00521188-73.93037834 34.18465643-73.93037834 79.12140101z m650.5873293 34.27847012H1033.18701678V468.56948589h-86.87145196v86.8662401zM77.6792233 902.89026257v-173.7220564H-9.18701678V902.89026257c0 71.93423205 58.32082718 130.29675419 130.29675421 130.29675421h173.73248014v-86.86102821H121.10973743c-23.96417902 0-43.43051411-19.51324191-43.43051413-43.435726z m868.63634152 0c0 23.92248406-19.45591133 43.43572599-43.42530225 43.435726h-173.73248014V1033.18701678H902.89026257c71.98113888 0 130.29675419-58.36252214 130.29675421-130.29675421v-173.7220564h-86.87145196V902.89026257z m0-217.15778239H1033.18701678v-86.86624011h-86.87145196v86.86624011z m0-260.5935084H1033.18701678V338.27273169h-86.87145196v86.86624009zM902.89026257-9.18701678h-173.73248015v86.86624008H902.89026257c23.96939089 0 43.42530224 19.48718255 43.42530225 43.43051413v173.73248014H1033.18701678V121.10973743c0-71.95507954-58.31561531-130.29675419-130.29675421-130.29675421zM338.27273169 1033.18701678h86.86624009v-86.8610282H338.27273169V1033.18701678z m260.58829654 0h86.86102819v-86.8610282h-86.86102819V1033.18701678z m-130.29154234 0h86.8662401v-86.8610282H468.56948589V1033.18701678z" p-id="1677"></path></svg>