<svg width="25" height="24" viewBox="0 0 25 24" xmlns="http://www.w3.org/2000/svg">
	<path
		d="M5.75 17.586V12.5C5.75 12.2239 5.52614 12 5.25 12H4.25C3.97386 12 3.75 12.2239 3.75 12.5V21H12.25C12.5261 21 12.75 20.7761 12.75 20.5V19.5C12.75 19.2239 12.5261 19 12.25 19H7.164L12.1898 13.9742C12.3851 13.7789 12.3851 13.4623 12.1898 13.2671L11.4829 12.5602C11.2877 12.3649 10.9711 12.3649 10.7758 12.5602L5.75 17.586Z" />
	<path
		d="M19.75 6.414V11.5C19.75 11.7761 19.9739 12 20.25 12H21.25C21.5261 12 21.75 11.7761 21.75 11.5V3H13.25C12.9739 3 12.75 3.22386 12.75 3.5V4.5C12.75 4.77614 12.9739 5 13.25 5H18.336L13.3102 10.0258C13.1149 10.2211 13.1149 10.5377 13.3102 10.7329L14.0171 11.4398C14.2123 11.6351 14.5289 11.6351 14.7242 11.4398L19.75 6.414Z" />
</svg>
