<?xml version="1.0" standalone="no"?><!DOCTYPE svg PUBLIC "-//W3C//DTD SVG 1.1//EN" "http://www.w3.org/Graphics/SVG/1.1/DTD/svg11.dtd"><svg class="icon" width="16px" height="16.00px" viewBox="0 0 1024 1024" version="1.1" xmlns="http://www.w3.org/2000/svg"><path d="M899.2 528.4c37.2 7.6 76 7.2 113.2-1.2-6.8 78.4-31.6 154-73.2 220.8-25.2-28.4-55.6-50.8-90-66.4-28.4 71.6-60.4 130.8-85.6 147.6s-93.6 28.8-171.2 33.2c3.6 38.8 15.6 76.8 35.2 110.4-75.6 17.6-154.8 17.6-230.4 0 19.6-34 31.6-71.6 35.2-110.8-72.4-4.4-135.2-15.2-162-32.8s-60.4-78-89.2-150c-36.8 15.6-69.6 39.2-96 69.2C43.6 681.6 18.8 605.6 12 527.2c39.6 9.2 80.8 8.8 120.4-0.4-18.4-73.6-26-138.8-14.4-166.8s56.8-74.4 114.4-122.8c-27.6-34-63.6-60.4-104-77.2C180 98.8 245.6 50.8 319.6 20c3.2 43.6 17.2 85.6 40.4 122.4 63.6-41.6 123.6-72 156.8-72s89.2 28 150.4 67.6c21.6-36 34.4-76.4 37.6-118 74 30.8 139.6 79.2 191.2 140.4-38.4 16-72.8 40.8-100 72.4 60 49.6 108 98.8 119.6 127.6s2.4 94-16.4 168z m-382.4-302c-53.6 0-223.2 130.4-242 176s47.6 255.2 92.4 284.4 258 27.6 299.2 0 110.8-238.8 92.4-284.4-188-176-242-176z m-167.6 224c0-35.6 28.8-64.4 64.4-64.4 35.6 0 64.4 28.8 64.4 64.4 0 35.6-28.8 64.4-64.4 64.4-35.6 0-64.4-28.8-64.4-64.4z m200.8 0c0-35.6 28.8-64.4 64.4-64.4 35.6 0 64.4 28.8 64.4 64.4s-28.8 64.4-64.4 64.4-64.4-28.8-64.4-64.4z" /></svg>