<svg width="16" height="16" viewBox="0 0 16 16" fill="none" xmlns="http://www.w3.org/2000/svg">
<rect width="16" height="16" rx="8" fill="#005FC1"/>
<path d="M11.2685 11.7835C10.3612 12.5697 9.20051 13.0017 8 13C5.2385 13 3 10.7615 3 8C3 5.2385 5.2385 3 8 3C10.7615 3 13 5.2385 13 8C13 9.068 12.665 10.058 12.095 10.87L10.5 8H12C11.9999 7.0781 11.6814 6.18453 11.0983 5.47044C10.5153 4.75636 9.70343 4.2656 8.80017 4.08118C7.8969 3.89676 6.95767 4.03001 6.14134 4.45838C5.32501 4.88676 4.68171 5.58396 4.32026 6.43204C3.95881 7.28013 3.9014 8.22703 4.15775 9.11257C4.41409 9.99811 4.96845 10.7679 5.72704 11.2918C6.48564 11.8156 7.4019 12.0614 8.32082 11.9874C9.23975 11.9135 10.1049 11.5244 10.77 10.886L11.2685 11.7835Z" fill="white"/>
</svg>
