<svg width="16" height="16" viewBox="0 0 16 16" fill="none" xmlns="http://www.w3.org/2000/svg">
<rect width="16" height="16" rx="8" fill="#E23A3A"/>
<path d="M5.1325 3.9035L5.706 4.723C5.00909 5.21088 4.48588 5.90825 4.21237 6.7138C3.93886 7.51935 3.9293 8.39112 4.18508 9.20247C4.44085 10.0138 4.94865 10.7225 5.63469 11.2255C6.32073 11.7286 7.14929 11.9998 8 11.9998C8.85072 11.9998 9.67927 11.7286 10.3653 11.2255C11.0514 10.7225 11.5591 10.0138 11.8149 9.20247C12.0707 8.39112 12.0611 7.51935 11.7876 6.7138C11.5141 5.90825 10.9909 5.21088 10.294 4.723L10.8675 3.9035C11.5265 4.36421 12.0645 4.97723 12.4357 5.69043C12.807 6.40364 13.0006 7.19595 13 8C13 10.7615 10.7615 13 8 13C5.2385 13 3 10.7615 3 8C2.99942 7.19595 3.193 6.40364 3.56427 5.69043C3.93554 4.97723 4.47353 4.36421 5.1325 3.9035ZM7.5 8V3H8.5V8H7.5Z" fill="white"/>
</svg>
