<svg width="20" height="20" viewBox="0 0 20 20" fill="currentColor" xmlns="http://www.w3.org/2000/svg">
	<path
		d="M3.76688 4.94506L1.16104 2.34006L2.34021 1.16089L18.8394 17.6609L17.6602 18.8392L14.9019 16.0809C13.4362 17.0105 11.7358 17.5028 10.0002 17.5001C5.50688 17.5001 1.76854 14.2667 0.984375 10.0001C1.34273 8.05899 2.31907 6.2858 3.76771 4.94506H3.76688ZM12.2977 13.4767L11.0777 12.2567C10.6111 12.48 10.0867 12.553 9.57682 12.4657C9.06695 12.3784 8.59671 12.1351 8.23093 11.7693C7.86516 11.4036 7.62185 10.9333 7.53456 10.4234C7.44726 9.91358 7.52028 9.38918 7.74354 8.92256L6.52354 7.70256C5.99331 8.5038 5.75627 9.46367 5.85257 10.4196C5.94887 11.3756 6.37258 12.2689 7.05197 12.9483C7.73136 13.6277 8.62467 14.0514 9.58063 14.1477C10.5366 14.244 11.4965 14.007 12.2977 13.4767V13.4767ZM6.64521 3.13339C7.68438 2.72506 8.81688 2.50006 10.0002 2.50006C14.4935 2.50006 18.2319 5.73339 19.016 10.0001C18.7607 11.3881 18.1868 12.698 17.3394 13.8267L14.1227 10.6101C14.2183 9.9664 14.1617 9.30931 13.9576 8.69143C13.7536 8.07356 13.4076 7.51207 12.9475 7.05194C12.4874 6.59182 11.9259 6.24586 11.308 6.04178C10.6901 5.8377 10.033 5.78117 9.38938 5.87672L6.64521 3.13422V3.13339Z" />
</svg>
