<svg width="16" height="16" viewBox="0 0 16 16" fill="none" xmlns="http://www.w3.org/2000/svg">
<rect width="16" height="16" rx="8" fill="#E23A3A"/>
<path d="M8.18196 7.475L10.4802 5.17678C10.5778 5.07915 10.7361 5.07915 10.8337 5.17678L11.1872 5.53022C11.2848 5.62785 11.2848 5.78615 11.1872 5.88378L8.88896 8.182L11.1872 10.4802C11.2848 10.5779 11.2848 10.7361 11.1872 10.8338L10.8337 11.1872C10.7361 11.2849 10.5778 11.2849 10.4802 11.1872L8.18196 8.889L5.88374 11.1872C5.78611 11.2849 5.62782 11.2849 5.53019 11.1872L5.17674 10.8338C5.07911 10.7361 5.07911 10.5779 5.17674 10.4802L7.47496 8.182L5.17674 5.88378C5.07911 5.78615 5.07911 5.62785 5.17674 5.53022L5.53019 5.17678C5.62782 5.07915 5.78611 5.07915 5.88374 5.17678L8.18196 7.475Z" fill="white"/>
</svg>
