<?xml version="1.0" standalone="no"?><!DOCTYPE svg PUBLIC "-//W3C//DTD SVG 1.1//EN" "http://www.w3.org/Graphics/SVG/1.1/DTD/svg11.dtd"><svg t="1606392363255" class="icon" viewBox="0 0 1077 1024" version="1.1" xmlns="http://www.w3.org/2000/svg" p-id="1376" xmlns:xlink="http://www.w3.org/1999/xlink" width="294.4921875" height="280"><defs><style type="text/css"></style></defs><path d="M888.80388139 905.62763038H203.15035235a44.54048557 44.54048557 0 0 1-44.54048556-44.48424626v-485.33382156a387.36724904 387.36724904 0 0 1 774.67826087 0v485.33382156a44.54048557 44.54048557 0 0 1-44.48424627 44.48424626z m-641.11304347-89.02473182h596.57255791V375.80956256a298.28627896 298.28627896 0 0 0-596.57255791 0v440.793336z m788.00666295 95.26714852H56.25673183a44.54048557 44.54048557 0 0 1 0-89.02473183h979.44076904a44.54048557 44.54048557 0 0 1 0 89.02473183z m-526.66874087-178.0494647a44.54048557 44.54048557 0 0 1-24.96966574-7.59212765 44.54048557 44.54048557 0 0 1-12.42859513-61.86178539l102.35313496-153.19227443H434.73837948a44.54048557 44.54048557 0 0 1-39.19787582-23.61995374 44.54048557 44.54048557 0 0 1 2.24951895-44.48424731L545.97711687 220.4802436a44.54048557 44.54048557 0 0 1 74.34661774 48.08347826l-102.35313495 153.52970296h139.30149182c16.30901635 0 31.32455791 8.88560139 39.19787687 23.17005078a44.54048557 44.54048557 0 0 1-2.24952 44.54048452L545.97711687 713.74362134a44.54048557 44.54048557 0 0 1-36.94835687 20.07696104z" p-id="1377"></path></svg>