<?xml version="1.0" standalone="no"?><!DOCTYPE svg PUBLIC "-//W3C//DTD SVG 1.1//EN" "http://www.w3.org/Graphics/SVG/1.1/DTD/svg11.dtd"><svg t="1606392321339" class="icon" viewBox="0 0 1210 1024" version="1.1" xmlns="http://www.w3.org/2000/svg" p-id="1505" xmlns:xlink="http://www.w3.org/1999/xlink" width="330.859375" height="280"><defs><style type="text/css"></style></defs><path d="M1070.33782088 939.35273958h-83.1263116V397.38880851a375.46609902 375.46609902 0 0 0-111.178376-267.13216277 375.66226687 375.66226687 0 0 0-267.13216276-111.17837599 375.66226687 375.66226687 0 0 0-267.13216277 111.17837599 375.66226687 375.66226687 0 0 0-111.17837599 267.13216277v541.91488878H147.46412015v-541.91488878A460.70121865 460.70121865 0 0 1 283.06544808 71.55328606a463.49661741 463.49661741 0 0 1 146.63579348-99.06498397 456.43455901 456.43455901 0 0 1 179.19972896-36.53634396 460.70121865 460.70121865 0 0 1 325.83552244 135.60132793 463.49661741 463.49661741 0 0 1 99.06498398 146.63579349 456.43455901 456.43455901 0 0 1 36.53634394 179.19972896v541.91488878z" p-id="1506"></path><path d="M1154.19976294 986.58025438H63.6021781a42.37235031 42.37235031 0 1 1 0-84.84278391h1090.59758484a42.37235031 42.37235031 0 1 1 0 84.84278391z m-545.3478347-345.74660331a42.37235031 42.37235031 0 0 1-42.37234903-42.4213926V249.91929999a42.37235031 42.37235031 0 1 1 84.84278262 0v348.49295848a42.4704336 42.4704336 0 0 1-42.42139131 42.4704349z m0 131.57987715a42.37235031 42.37235031 0 0 1-42.37234903-42.42139132v-6.22834337a42.37235031 42.37235031 0 1 1 84.84278262 0v6.22834337a42.37235031 42.37235031 0 0 1-42.42139131 42.42139132z" p-id="1507"></path></svg>