<?xml version="1.0" standalone="no"?><!DOCTYPE svg PUBLIC "-//W3C//DTD SVG 1.1//EN" "http://www.w3.org/Graphics/SVG/1.1/DTD/svg11.dtd"><svg class="icon" width="32px" height="32.00px" viewBox="0 0 1024 1024" version="1.1" xmlns="http://www.w3.org/2000/svg"><path d="M698.88 291.328c-176.384 0-319.658667 144.213333-319.658667 321.706667 0 177.322667 143.36 321.706667 319.658667 321.706666 176.384 0 319.658667-144.384 319.658667-321.706666 0.085333-177.322667-143.36-321.706667-319.658667-321.706667z m0 583.082667c-143.189333 0-259.669333-117.333333-259.669333-261.376 0-144.128 116.48-261.376 259.669333-261.376 143.189333 0 259.669333 117.248 259.669333 261.376a260.693333 260.693333 0 0 1-259.669333 261.376zM39.765333 759.466667a39.594667 39.594667 0 0 0-39.68 39.765333c0 22.101333 17.749333 39.936 39.594667 39.936h305.493333a416.682667 416.682667 0 0 1-38.997333-79.530667L39.765333 759.466667zM969.386667 123.221333c21.930667 0 39.594667-17.834667 39.594666-39.765333a39.338667 39.338667 0 0 0-39.509333-39.850667H39.68a39.936 39.936 0 0 0 0 79.616H969.386667zM39.765333 600.405333h240.64a436.053333 436.053333 0 0 1 9.557334-79.530666H39.765333a39.850667 39.850667 0 0 0 0 79.530666z m0-318.037333a39.338667 39.338667 0 0 0-39.509333 39.850667c0 22.016 17.664 39.850667 39.509333 39.850666H362.666667c22.186667-29.952 47.872-56.661333 76.8-79.701333H39.68zM708.266667 608.426667v-83.456a35.84 35.84 0 1 0-71.594667 0V644.266667c0 19.882667 16.042667 35.84 35.84 35.84h119.296a35.84 35.84 0 1 0 0-71.68H708.266667z" /></svg>