<?xml version="1.0" standalone="no"?><!DOCTYPE svg PUBLIC "-//W3C//DTD SVG 1.1//EN" "http://www.w3.org/Graphics/SVG/1.1/DTD/svg11.dtd"><svg class="icon" width="16px" height="16.00px" viewBox="0 0 1024 1024" version="1.1" xmlns="http://www.w3.org/2000/svg"><path d="M387.423423 944.378365H116.79712c-20.974817 0.511581-38.368568-16.370589-38.880149-37.345406V118.175191c0-22.50956 16.88217-39.39173 38.880149-39.39173h619.524486c21.997979 0 38.880149 16.88217 38.880149 39.39173v236.350382c0 22.50956 16.88217 39.39173 38.880149 39.39173s38.880149-16.88217 38.88015-39.39173V118.175191c0-65.482357-51.669672-118.175191-116.640448-118.175191H116.79712C51.826344 0 0.156672 52.692834 0.156672 118.175191v786.811444C0.156672 970.468992 51.826344 1023.161826 116.79712 1023.161826h271.649465c21.997979 0 38.880149-16.88217 38.880149-39.39173 0-21.997979-17.905332-39.39173-39.903311-39.391731zM426.303572 535.113635c0-24.555884-16.88217-42.461216-39.903311-42.461216H210.416427c-23.021141 0-39.903311 18.416913-39.903311 42.461216 0 24.555884 16.88217 42.461216 39.903311 42.461216h175.983834c20.974817 0 39.903311-18.416913 39.903311-42.461216zM682.094029 298.251672c0-24.555884-15.859008-42.461216-36.833826-42.461216H207.346942c-20.974817 0-36.833826 18.416913-36.833826 42.461216 0 24.555884 15.859008 42.461216 36.833826 42.461216h438.424842c18.928494 0.511581 36.322245-19.951656 36.322245-42.461216zM1010.017394 951.540498l-136.080523-130.453133c24.555884-35.299083 41.949635-77.248718 45.530702-122.779419 14.324266-138.638427-82.364527-256.302037-221.514536-270.626303-138.638427-14.324266-256.302037 82.364527-270.626303 221.514535-14.324266 138.638427 82.364527 256.302037 221.514536 270.626303 61.38971 7.162133 119.198353-8.696876 165.240634-40.414892l138.638428 133.011038c16.370589 15.859008 42.461216 15.347427 58.320224-1.023162 16.370589-17.393751 15.859008-43.484378-1.023162-59.854967z m-158.078502-252.20939c-9.208456 92.596145-94.642469 161.659568-187.238614 152.451112-93.619307-9.720037-161.659568-93.107726-152.451112-186.727033 9.720037-93.619307 93.107726-161.659568 187.238614-152.451112 93.619307 9.720037 161.659568 93.107726 152.451112 186.727033zM204.789037 681.937357c-19.440075 0-34.275921 18.416913-34.275921 42.461216s14.835846 42.461216 34.275921 42.461215h102.316183c19.440075 0 34.275921-18.416913 34.275921-42.461215s-14.324266-42.461216-34.275921-42.461216H204.789037z" /></svg>