<?xml version="1.0" standalone="no"?><!DOCTYPE svg PUBLIC "-//W3C//DTD SVG 1.1//EN" "http://www.w3.org/Graphics/SVG/1.1/DTD/svg11.dtd"><svg class="icon" width="16px" height="16.00px" viewBox="0 0 1024 1024" version="1.1" xmlns="http://www.w3.org/2000/svg"><path d="M935.3728 1024H88.6272a59.0848 59.0848 0 0 1-59.0848-59.0848v-374.1696c0 5.4272 4.4032 0 9.8304 0h39.3728c5.4272 0 9.8304 5.4272 9.8304 0v354.4576a19.712 19.712 0 0 0 19.712 19.712h807.424a19.712 19.712 0 0 0 19.712-19.712v-354.4576h59.0848v354.4576c0 32.6144-26.4704 78.7456-59.0848 78.7456zM364.1856 354.56h295.4752v71.68q-69.12 87.04-93.696 163.4816t-24.576 179.2v57.7536H451.3792v-57.5488a511.1808 511.1808 0 0 1 31.232-182.1184c20.8384-55.04 51.2-101.2224 90.8288-153.6H364.1856v-78.848zM955.0848 512h-19.712V177.2544a19.712 19.712 0 0 0-19.712-19.712h-137.8304v59.0848a19.712 19.712 0 0 1-19.712 19.712h-59.0336a19.712 19.712 0 0 1-19.712-19.712V157.5424H344.6272v59.0848a19.712 19.712 0 0 1-19.712 19.712H265.8304a19.712 19.712 0 0 1-19.712-19.712V157.5424H108.288a19.712 19.712 0 0 0-19.712 19.712V512c0-5.4272-4.4032 0-9.8304 0H39.3728c-5.4272 0-9.8304-5.4272-9.8304 0V157.5424a59.0848 59.0848 0 0 1 59.0848-59.0848h157.5424V19.712A19.712 19.712 0 0 1 265.8304 0h59.0848a19.712 19.712 0 0 1 19.712 19.712v78.7456h334.7456V19.712A19.712 19.712 0 0 1 699.0848 0h59.0848a19.712 19.712 0 0 1 19.712 19.712v78.7456h157.5424c32.6144 0 59.0848 6.7584 59.0848 39.3728V512h-39.3728z" /></svg>