<?xml version="1.0" standalone="no"?><!DOCTYPE svg PUBLIC "-//W3C//DTD SVG 1.1//EN" "http://www.w3.org/Graphics/SVG/1.1/DTD/svg11.dtd"><svg class="icon" width="16px" height="16.00px" viewBox="0 0 1024 1024" version="1.1" xmlns="http://www.w3.org/2000/svg"><path d="M511.018667 539.008L295.808 414.933333V166.741333L511.018667 42.666667l215.253333 124.074666v248.192l-215.253333 124.074667zM345.941333 385.706667l165.12 94.890666 165.077334-94.890666V195.968l-165.12-94.890667-165.077334 94.890667V385.706667z m418.218667 593.706666l-215.210667-124.117333V607.146667l215.210667-124.117334 215.253333 124.117334v248.149333l-215.253333 124.117333z m-166.314667-153.301333l165.12 94.890667 166.272-94.890667v-189.781333L764.16 541.44l-165.12 94.890667v189.781333h-1.194667z m-339.968 153.301333L42.666667 855.296V607.146667l215.210666-124.117334 216.448 124.117334v248.149333l-216.448 124.117333z m-165.077333-153.301333l165.12 94.890667 166.272-94.890667v-189.781333L259.114667 541.44l-166.314667 94.890667v189.781333z" /></svg>