<?xml version="1.0" standalone="no"?><!DOCTYPE svg PUBLIC "-//W3C//DTD SVG 1.1//EN" "http://www.w3.org/Graphics/SVG/1.1/DTD/svg11.dtd"><svg class="icon" width="16px" height="16.00px" viewBox="0 0 1024 1024" version="1.1" xmlns="http://www.w3.org/2000/svg"><path d="M612.4 408.2c-23.9-24.6-55.9-41.3-91.7-45.9l4.8 81.5c10.1 3.4 19.3 8.9 27 16l59.9-51.6z m38.5-35.8l34.8-41c7.2-8.5 19.9-9.5 28.4-2.3 0.4 0.4 0.8 0.7 1.2 1.1 8.1 8.1 8.1 21.3 0 29.4-0.3 0.3-0.5 0.5-0.8 0.7l-42.4 38.2c23.1 33.5 36.7 74.1 36.7 117.9 0 17.3-2.1 34.2-6.1 50.3l4.3 1.5c0.3 0 0.6 0.1 0.9 0.1l64.4 11.7c11 2 18.2 12.5 16.2 23.4-0.1 0.5-0.2 1.1-0.4 1.6-3 11.1-14.4 17.6-25.4 14.7-0.3-0.1-0.7-0.2-1-0.3l-60.3-19.6c-1-0.3-1.9-0.7-2.8-1.2l-6.1-1.3c-16.8 39.6-45.6 73-81.8 95.5l4.3 8.9c0.2 0.2 0.3 0.5 0.5 0.7l37.2 53.8c6.3 9.2 4 21.7-5.1 28-0.5 0.3-0.9 0.6-1.4 0.9-9.9 5.7-22.6 2.3-28.4-7.6-0.2-0.3-0.4-0.6-0.5-1L588.5 720c-0.5-0.9-0.9-1.9-1.1-2.9l-6.1-9.3c-24.7 10.3-51.8 16-80.2 16-25 0-48.9-4.4-71.1-12.5l-4.7 8.4c-0.1 0.3-0.2 0.5-0.3 0.8l-22.7 61.4c-3.9 10.4-15.5 15.8-25.9 11.9l-1.5-0.6c-10.4-4.8-14.9-17.2-10-27.6 0.2-0.3 0.3-0.6 0.5-1l29.7-56c0.5-0.9 1.1-1.8 1.7-2.6l3.3-8.4c-42.9-23.9-76.5-62.7-93.8-109.3l-6.2 1.3c-0.9 0.5-1.8 0.9-2.8 1.2L237 610.4c-0.3 0.1-0.7 0.2-1 0.3-11.1 3-22.5-3.6-25.4-14.7-0.1-0.5-0.3-1.1-0.4-1.6-2-11 5.3-21.4 16.2-23.4l64.4-11.7c0.3-0.1 0.6-0.1 0.9-0.1l5.8-2c-2.7-13.3-4.1-27-4.1-41 0-45.6 14.7-87.7 39.5-121.9l-3.4-3.9c-0.9-0.5-1.7-1.1-2.5-1.8l-47.1-42.4c-0.3-0.2-0.5-0.5-0.8-0.7-8.1-8.1-8.1-21.3 0-29.4 0.4-0.4 0.8-0.8 1.2-1.1 8.5-7.2 21.2-6.2 28.4 2.3l42.4 49.9c0.2 0.2 0.4 0.4 0.5 0.7l2.2 1.9c34.3-34.5 80.6-57 132.1-60.7l-4.9-59.6c-0.9-11.1 7.4-20.8 18.4-21.7 0.5 0 1.1-0.1 1.6-0.1 11.5 0 20.8 9.3 20.8 20.8v1.1l-3.1 59.7c51.8 4.4 98.2 27.8 132.2 63.1z m-15.7 65.7L576.6 504c0.6 4 1 8.1 1 12.3 0 2.2-0.1 4.4-0.3 6.6l75.5 26.3c2.3-10.6 3.5-21.6 3.5-32.9 0-28.5-7.7-55.2-21.1-78.2z m4.4 148.5l-83.4-17.1c-1.1 1.2-2.3 2.3-3.6 3.5l35 72.4c22-14.9 39.9-35.1 52-58.8z m-87.9 76.6l-46.4-70.4c-1.4 0.1-2.8 0.1-4.2 0.1-1.6 0-3.1 0-4.6-0.1L456 665c14.3 4.3 29.4 6.6 45 6.6 17.8 0.1 34.8-2.9 50.7-8.4z m-132.1-14.6l30-75.6c-3.9-3.5-7.4-7.4-10.5-11.7l-80.7 16.6c12.7 29.4 34.2 54 61.2 70.7z m-72.1-108.7l77-26.9c0.2-4.6 0.8-9 1.7-13.3L368.8 435c-14.6 23.7-23 51.6-23 81.4-0.1 8 0.5 15.8 1.7 23.5z m46.1-135.6l60.2 51.9c6.9-5.4 14.7-9.7 23.2-12.5l6-81.6c-34.6 4-65.6 19.3-89.4 42.2zM501 549.2c18.1 0 32.8-14.7 32.8-32.8 0-18.1-14.7-32.8-32.8-32.8-18.1 0-32.8 14.7-32.8 32.8 0 18.1 14.7 32.8 32.8 32.8z m0-448.4l342 164.7 84.5 370.1-236.7 296.8H311.2L74.6 635.6 159 265.5l342-164.7z m0 52.5L200 298.2l-74.3 325.7L334 885.1h334l208.3-261.2L802 298.2 501 153.3z" /></svg>