<svg xmlns="http://www.w3.org/2000/svg" viewBox="0 0 24 25" class="design-iconfont">
  <path fill-rule="evenodd" clip-rule="evenodd"
    d="M12 4.11253C11.4986 3.58145 10.788 3.25 10 3.25H5C4.30964 3.25 3.75 3.80964 3.75 4.5V5.25H2C1.30965 5.25 0.75 5.80964 0.75 6.5V20C0.75 20.6904 1.30964 21.25 2 21.25H8.90193L9.27822 22.0384C9.48572 22.4732 9.92458 22.75 10.4063 22.75H13.5937C14.0755 22.75 14.5143 22.4732 14.7218 22.0384L15.0981 21.25H22C22.6904 21.25 23.25 20.6904 23.25 20V6.5C23.25 5.80964 22.6904 5.25 22 5.25H20.25V17.5C20.25 18.1904 19.6904 18.75 19 18.75H5C4.30964 18.75 3.75 18.1904 3.75 17.5V5.27289L5.25 4.75V17.25H11.25V5H12.75V17.25H18.75V4.75L20.25 5.25V4.5C20.25 3.80964 19.6904 3.25 19 3.25H14C13.212 3.25 12.5014 3.58145 12 4.11253ZM6.5 7.5C6.5 7.22386 6.72386 7 7 7H9.5C9.77614 7 10 7.22386 10 7.5V8C10 8.27614 9.77614 8.5 9.5 8.5H7C6.72386 8.5 6.5 8.27614 6.5 8V7.5ZM6.5 10.5C6.5 10.2239 6.72386 10 7 10H9.5C9.77614 10 10 10.2239 10 10.5V11C10 11.2761 9.77614 11.5 9.5 11.5H7C6.72386 11.5 6.5 11.2761 6.5 11V10.5Z" />
</svg>
