<svg xmlns="http://www.w3.org/2000/svg" viewBox="0 0 24 25" class="design-iconfont">
  <path
    d="M7 7C6.72386 7 6.5 7.22386 6.5 7.5V8C6.5 8.27614 6.72386 8.5 7 8.5H9.5C9.77614 8.5 10 8.27614 10 8V7.5C10 7.22386 9.77614 7 9.5 7H7Z" />
  <path
    d="M7 10C6.72386 10 6.5 10.2239 6.5 10.5V11C6.5 11.2761 6.72386 11.5 7 11.5H9.5C9.77614 11.5 10 11.2761 10 11V10.5C10 10.2239 9.77614 10 9.5 10H7Z" />
  <path fill-rule="evenodd" clip-rule="evenodd"
    d="M12 4.11253C11.4986 3.58145 10.788 3.25 10 3.25H5C4.30964 3.25 3.75 3.80964 3.75 4.5V5.25H2C1.30965 5.25 0.75 5.80964 0.75 6.5V20C0.75 20.6904 1.30964 21.25 2 21.25H8.90193L9.27822 22.0384C9.48572 22.4732 9.92458 22.75 10.4063 22.75H13.5937C14.0755 22.75 14.5143 22.4732 14.7218 22.0384L15.0981 21.25H22C22.6904 21.25 23.25 20.6904 23.25 20V6.5C23.25 5.80964 22.6904 5.25 22 5.25H20.25V4.5C20.25 3.80964 19.6904 3.25 19 3.25H14C13.212 3.25 12.5014 3.58145 12 4.11253ZM13.436 21.25L14.1519 19.75H21.75V6.75H20.25V17.5C20.25 18.1904 19.6904 18.75 19 18.75H5C4.30964 18.75 3.75 18.1904 3.75 17.5V6.75H2.25V19.75H9.84811L10.564 21.25H13.436ZM10 4.75C10.6904 4.75 11.25 5.30964 11.25 6V17.25H5.25V4.75H10ZM12.75 6C12.75 5.30964 13.3096 4.75 14 4.75H18.75V17.25H12.75V6Z" />
</svg>
