<svg xmlns="http://www.w3.org/2000/svg" viewBox="0 0 24 24" class="design-iconfont">
  <path
    d="M17 3H21C21.2652 3 21.5196 3.10536 21.7071 3.29289C21.8946 3.48043 22 3.73478 22 4V20C22 20.2652 21.8946 20.5196 21.7071 20.7071C21.5196 20.8946 21.2652 21 21 21H3C2.73478 21 2.48043 20.8946 2.29289 20.7071C2.10536 20.5196 2 20.2652 2 20V4C2 3.73478 2.10536 3.48043 2.29289 3.29289C2.48043 3.10536 2.73478 3 3 3H7V1.5C7 1.22386 7.22386 1 7.5 1H8.5C8.77614 1 9 1.22386 9 1.5V3H15V1.5C15 1.22386 15.2239 1 15.5 1H16.5C16.7761 1 17 1.22386 17 1.5V3ZM15 5H9V6.5C9 6.77614 8.77614 7 8.5 7H7.5C7.22386 7 7 6.77614 7 6.5V5H4V9H20V5H17V6.5C17 6.77614 16.7761 7 16.5 7H15.5C15.2239 7 15 6.77614 15 6.5V5ZM20 11H4V19H20V11ZM6 14.5C6 14.2239 6.22386 14 6.5 14H7.5C7.77614 14 8 14.2239 8 14.5V15.5C8 15.7761 7.77614 16 7.5 16H6.5C6.22386 16 6 15.7761 6 15.5V14.5ZM10 14.5C10 14.2239 10.2239 14 10.5 14H17.5C17.7761 14 18 14.2239 18 14.5V15.5C18 15.7761 17.7761 16 17.5 16H10.5C10.2239 16 10 15.7761 10 15.5V14.5Z" />
</svg>
