<svg width="269" height="32" viewBox="0 0 269 32" fill="none" xmlns="http://www.w3.org/2000/svg">
<path fill-rule="evenodd" clip-rule="evenodd" d="M9.98242 3.47754L16.0093 6.95274L16.0093 12.5234L9.98242 16.001V3.47754Z" fill="#16D94C"/>
<path fill-rule="evenodd" clip-rule="evenodd" d="M16.0096 12.5232L22.0365 16.001L16.0096 19.4785L9.98242 16.001L16.0096 12.5232Z" fill="#50F59C"/>
<path fill-rule="evenodd" clip-rule="evenodd" d="M23.8465 11.4624L23.8469 11.4722L9.98242 3.47746L16.0093 0L23.8443 4.52103L23.8446 4.50861L29.8719 7.98607L23.8465 11.4624Z" fill="#50F59C"/>
<path fill-rule="evenodd" clip-rule="evenodd" d="M22.0366 16.001V28.5226L16.0098 25.0468L16.0098 19.4786L22.0366 16.001Z" fill="#16D94C"/>
<path fill-rule="evenodd" clip-rule="evenodd" d="M8.1714 20.5373L8.17137 20.5271L22.0363 28.5226L16.0094 32L2.14453 24L8.1714 20.5373Z" fill="#50F59C"/>
<path fill-rule="evenodd" clip-rule="evenodd" d="M8.17209 4.52222L8.17175 20.5373L2.14453 24L2.14488 8.00005L8.17209 4.52222Z" fill="#12ACFF"/>
<path fill-rule="evenodd" clip-rule="evenodd" d="M29.8608 7.99219L29.8744 8.00009V24.0001L23.8472 27.4779L23.8472 11.4621L29.8608 7.99219Z" fill="#12ACFF"/>
<path d="M41.5195 19.48C39.6995 19.9 37.8795 20.28 36.5995 20.5L36.9795 22.4C38.3995 22.06 40.0595 21.66 41.6995 21.26L41.5195 19.48ZM37.0995 7.7V9.72H41.4395C41.2795 11.98 41.0195 14.44 40.7595 16.22H39.2595C39.4195 14.62 39.5595 12.72 39.6395 11.12L37.7595 11.02C37.6595 13.26 37.4395 16.26 37.1995 18.06H42.1795C41.9795 21.66 41.7595 23.14 41.3995 23.54C41.1995 23.74 41.0395 23.78 40.6995 23.78C40.3195 23.78 39.4995 23.78 38.6195 23.68C38.9595 24.22 39.1795 25.02 39.1995 25.62C40.1595 25.66 41.0995 25.66 41.6395 25.58C42.2795 25.52 42.7395 25.34 43.1595 24.82C43.7395 24.12 43.9995 22.14 44.2595 17.1C44.2795 16.82 44.2795 16.22 44.2795 16.22H42.8195C43.1195 13.94 43.4395 10.46 43.6195 7.7H37.0995ZM46.6195 22.18V21.2C48.8395 19.56 49.2595 16.7 49.2595 14.38V10.02H50.1795V18.24C50.1795 19.64 50.4795 20.04 51.7395 20.04H52.7995V22.18H46.6195ZM47.5995 10.02V14.36C47.5995 15.74 47.4795 17.52 46.6195 18.86V10.02H47.5995ZM52.7995 18.7C52.7595 18.72 52.6995 18.72 52.6195 18.72H52.0595C51.8595 18.72 51.8395 18.68 51.8395 18.24V10.02H52.7995V18.7ZM44.7595 8.14V25.7H46.6195V24.18H52.7995V25.7H54.7595V8.14H44.7595ZM66.6195 15.78C66.9595 15.4 67.2795 15.02 67.5595 14.58H70.9395C71.1995 15 71.4795 15.4 71.7995 15.78H66.6195ZM59.3395 16.94C59.3595 16.26 59.3595 15.62 59.3595 15.02V14.46H61.0395V16.94H59.3395ZM61.0395 9.9V12.3H59.3595V9.9H61.0395ZM75.2595 14.58V12.76H68.5395C68.7195 12.38 68.8795 12 69.0195 11.6H74.7395V9.84H72.8995C73.2195 9.26 73.5795 8.54 73.9595 7.78L71.7995 7.2C71.6395 7.9 71.2595 8.88 70.9595 9.56L71.8795 9.84H69.5595C69.7795 9.04 69.9195 8.2 70.0595 7.28L67.9595 7.06C67.8395 8.06 67.6795 8.98 67.4395 9.84H65.5995L66.8195 9.46C66.6995 8.82 66.3195 7.86 65.9195 7.16L64.1395 7.68C64.4995 8.34 64.7995 9.2 64.8995 9.84H63.7795V11.6H66.8195C66.6595 12 66.4595 12.4 66.2395 12.76H63.2795V14.58H64.8995C64.3595 15.16 63.7195 15.64 62.9995 16.06V7.76H57.4395V15.04C57.4395 17.94 57.3795 21.96 56.4395 24.72C56.8995 24.9 57.7795 25.38 58.1595 25.68C58.7795 23.86 59.0995 21.46 59.2395 19.14H61.0395V23.32C61.0395 23.54 60.9795 23.6 60.7595 23.6C60.5795 23.62 59.9595 23.62 59.3595 23.58C59.6195 24.12 59.8595 25.04 59.9195 25.58C61.0395 25.58 61.7795 25.54 62.2995 25.18C62.8595 24.84 62.9995 24.28 62.9995 23.34V16.68C63.3995 17.1 63.8395 17.64 63.9995 17.94C64.4595 17.66 64.8995 17.36 65.3195 17.02V17.42H70.0395C69.9195 17.94 69.8195 18.46 69.6995 18.92H67.2595L67.4595 17.92L65.4195 17.74C65.2795 18.7 65.0395 19.82 64.7995 20.64H72.2995C72.0995 22.56 71.8795 23.42 71.5995 23.68C71.4195 23.84 71.2595 23.88 70.9595 23.88C70.5995 23.88 69.8395 23.86 69.0595 23.78C69.3795 24.3 69.5595 25.04 69.5995 25.62C70.5395 25.66 71.3795 25.66 71.8995 25.6C72.4795 25.54 72.9195 25.4 73.3195 24.96C73.8395 24.42 74.1195 22.98 74.3795 19.72C74.4195 19.44 74.4395 18.92 74.4395 18.92H71.7995C71.9795 18.18 72.1795 17.28 72.3595 16.4C72.9595 16.98 73.5995 17.46 74.3395 17.82C74.6395 17.3 75.2795 16.56 75.7395 16.16C74.8395 15.82 73.9995 15.24 73.3595 14.58H75.2595ZM71.1195 21.48H63.8995V23.06H71.1195V21.48Z" fill="white"/>
<ellipse cx="82.2535" cy="15.9999" rx="2.23392" ry="2.23256" fill="white"/>
<path d="M107.367 14.88V12.42H99.5073C99.7073 10.56 99.7273 8.72 99.7473 7.08H97.1473C97.1273 8.72 97.1473 10.54 96.9473 12.42H89.6673V14.88H96.5473C95.7673 18.32 93.8673 21.64 89.2873 23.68C89.9873 24.18 90.6873 25.04 91.0673 25.7C95.3073 23.66 97.4673 20.54 98.5473 17.2C100.107 21.06 102.427 23.98 106.047 25.68C106.427 25 107.207 23.94 107.807 23.44C104.067 21.92 101.647 18.78 100.327 14.88H107.367ZM116.987 7.32C116.667 8.06 116.127 9.14 115.667 9.84L117.187 10.52C117.707 9.9 118.327 9 118.987 8.1L116.987 7.32ZM113.187 16.04H115.387V13.86C116.147 14.46 116.927 15.12 117.367 15.54L118.607 13.88C118.267 13.64 117.147 12.98 116.247 12.46H119.167V10.58H115.387V7.06H113.187V10.58H111.167L112.787 9.86C112.627 9.18 112.127 8.14 111.587 7.4L109.907 8.1C110.347 8.88 110.807 9.9 110.967 10.58H109.407V12.46H112.367C111.427 13.44 110.167 14.32 108.987 14.8C109.427 15.24 109.947 16.02 110.207 16.54C111.207 16 112.267 15.16 113.187 14.24V16.04ZM116.007 19.22C115.647 19.92 115.167 20.54 114.607 21.1C114.087 20.82 113.527 20.54 112.987 20.28C113.187 19.96 113.387 19.6 113.587 19.22H116.007ZM117.807 22.96C117.407 22.68 116.927 22.38 116.387 22.08C117.407 20.92 118.207 19.48 118.687 17.72L117.407 17.24L117.047 17.3H114.507C114.627 17.04 114.747 16.78 114.847 16.52L112.747 16.14C112.607 16.52 112.447 16.9 112.267 17.3H109.767V19.22H111.287C110.887 19.9 110.507 20.52 110.147 21.04C111.047 21.42 112.047 21.88 112.987 22.38C111.847 23.08 110.507 23.6 109.067 23.92C109.467 24.32 109.927 25.16 110.147 25.7C111.947 25.2 113.547 24.48 114.887 23.46C115.487 23.82 116.007 24.18 116.407 24.48L117.807 22.96ZM124.147 12.94C123.947 14.64 123.627 16.14 123.167 17.5C122.647 16.08 122.247 14.54 121.947 12.94H124.147ZM127.607 12.94V10.74H122.287C122.527 9.68 122.727 8.56 122.887 7.44L120.727 7.12C120.267 10.7 119.387 14.08 117.787 16.16C118.267 16.5 119.167 17.28 119.487 17.68C119.867 17.14 120.227 16.54 120.547 15.9C120.947 17.42 121.387 18.82 121.967 20.08C120.947 21.74 119.467 23 117.447 23.9C117.867 24.36 118.487 25.36 118.707 25.84C120.567 24.9 122.007 23.7 123.147 22.18C124.047 23.58 125.147 24.72 126.527 25.58C126.847 24.98 127.547 24.12 128.067 23.7C126.567 22.88 125.347 21.62 124.427 20.04C125.367 18.08 125.967 15.74 126.347 12.94H127.607ZM135.307 15.52L133.547 16V13.04H135.547V10.84H133.547V7.06H131.387V10.84H129.287V13.04H131.387V16.56C130.467 16.8 129.667 17 128.967 17.16L129.507 19.46L131.387 18.92V22.96C131.387 23.22 131.287 23.3 131.047 23.3C130.807 23.32 130.127 23.32 129.407 23.3C129.687 23.92 129.947 24.9 130.007 25.48C131.287 25.5 132.167 25.42 132.767 25.02C133.367 24.66 133.547 24.08 133.547 22.98V18.28C134.227 18.08 134.927 17.86 135.587 17.66L135.307 15.52ZM138.427 15.4C138.447 14.88 138.447 14.42 138.447 13.96V13.64H141.387V15.4H138.427ZM144.867 9.88V11.6H138.447V9.88H144.867ZM145.067 23.28H140.227V21.28H145.067V23.28ZM147.667 17.4V15.4H143.607V13.64H147.107V7.86H136.127V13.96C136.127 17.08 135.967 21.46 134.007 24.4C134.507 24.66 135.507 25.38 135.927 25.8C137.447 23.54 138.087 20.32 138.307 17.4H141.387V19.32H138.187V25.74H140.227V25.16H145.067V25.72H147.207V19.32H143.607V17.4H147.667ZM166.307 8.08H156.107V10.28H166.307V8.08ZM156.167 21.72C156.927 21.4 157.947 21.28 164.627 20.64C164.887 21.18 165.127 21.68 165.307 22.1L167.447 21C166.707 19.5 165.147 17 164.047 15.16L162.067 16.06C162.527 16.84 163.007 17.72 163.507 18.6L158.687 18.98C159.567 17.7 160.487 16.18 161.167 14.7H167.607V12.48H154.767V14.7H158.287C157.627 16.36 156.767 17.86 156.427 18.32C156.027 18.88 155.687 19.24 155.267 19.36C155.567 20.02 155.987 21.2 156.107 21.72C156.107 21.66 156.127 21.62 156.167 21.56V21.72ZM154.747 10.4C153.927 9.7 152.267 8.56 151.187 7.8L149.627 9.3C150.727 10.16 152.327 11.38 153.067 12.1L154.747 10.4ZM153.987 13.86H149.207V16.06H151.647V21.66C150.787 22.08 149.867 22.78 149.007 23.64L150.647 25.96C151.487 24.76 152.447 23.52 153.067 23.52C153.487 23.52 154.167 24.12 154.967 24.56C156.387 25.36 157.987 25.6 160.487 25.6C162.667 25.6 165.827 25.48 167.327 25.4C167.347 24.7 167.767 23.46 168.047 22.78C165.967 23.08 162.607 23.26 160.587 23.26C158.407 23.26 156.627 23.16 155.287 22.36C154.747 22.04 154.327 21.74 153.987 21.54V13.86ZM172.827 17.68C174.207 16 175.507 14.06 176.567 12.12L174.707 10.98C174.347 11.76 173.927 12.54 173.487 13.3L171.787 13.42C172.887 11.82 173.987 9.86 174.727 8L172.607 7C171.907 9.34 170.587 11.84 170.147 12.46C169.707 13.12 169.367 13.54 168.947 13.64C169.207 14.24 169.567 15.3 169.687 15.76C169.987 15.6 170.487 15.48 172.247 15.28C171.587 16.22 171.027 16.98 170.727 17.3C170.107 18.02 169.647 18.5 169.147 18.62C169.387 19.16 169.747 20.16 169.847 20.6C170.367 20.28 171.187 20.06 176.127 19.12C176.107 18.64 176.107 17.74 176.207 17.14L172.827 17.68ZM169.627 24.86C171.627 24.32 174.247 23.64 176.687 22.98L176.467 21C173.787 21.6 171.007 22.26 169.187 22.6L169.627 24.86ZM179.867 20.44H182.307V22.24H179.867V20.44ZM182.307 14.5H179.867V12.76H182.307V14.5ZM182.307 18.3H179.867V16.62H182.307V18.3ZM187.767 22.24H184.527V20.44H187.087V18.3H184.527V16.62H187.047V14.5H184.527V12.76H187.507V10.62H183.707L185.187 9.94C184.927 9.18 184.347 8.02 183.767 7.16L181.747 8C182.227 8.8 182.707 9.84 182.967 10.62H180.407C180.847 9.66 181.207 8.72 181.527 7.78L179.247 7.14C178.627 9.44 177.287 12.44 175.787 14.26C176.127 14.82 176.607 15.88 176.807 16.48C177.087 16.16 177.367 15.82 177.627 15.48V25.76H179.867V24.46H187.767V22.24ZM207.427 11.88V9.72H202.047C202.267 9 202.467 8.28 202.647 7.54L200.367 7.08C199.747 9.9 198.587 12.64 197.027 14.3C197.567 14.62 198.547 15.32 198.947 15.72C199.807 14.7 200.547 13.36 201.207 11.88H207.427ZM201.147 13.62C202.367 14.64 203.867 16.08 204.527 17.02L206.467 15.64C205.727 14.7 204.207 13.32 202.967 12.4L201.147 13.62ZM196.967 7.08H194.607V16.78H196.967V7.08ZM192.967 7.74H190.667V16.24H192.967V7.74ZM193.667 19.64H195.427V23.16H193.667V19.64ZM199.407 19.64V23.16H197.607V19.64H199.407ZM203.367 19.64V23.16H201.567V19.64H203.367ZM205.707 23.16V17.64H191.447V23.16H189.407V25.28H207.607V23.16H205.707ZM217.827 11.36H225.327V12.92H227.567V9.34H223.047C222.807 8.64 222.407 7.7 222.047 6.98L219.767 7.5C220.007 8.06 220.287 8.72 220.487 9.34H215.687V13H217.827V11.36ZM221.907 13.52C223.187 14.54 224.947 16 225.767 16.88L227.267 15.3C226.347 14.46 224.527 13.08 223.327 12.12L221.907 13.52ZM215.127 15.72L213.527 16.24V12.78H215.207V10.6H213.527V7.04H211.347V10.6H209.327V12.78H211.347V16.96C210.487 17.24 209.707 17.48 209.067 17.66L209.527 19.94L211.347 19.3V22.9C211.347 23.16 211.267 23.24 211.007 23.24C210.767 23.26 210.087 23.26 209.367 23.24C209.647 23.86 209.927 24.84 209.987 25.42C211.247 25.44 212.127 25.36 212.727 24.96C213.347 24.6 213.527 24.02 213.527 22.92V18.52C214.187 18.28 214.867 18.02 215.507 17.8L215.127 15.72ZM222.647 23.02V19.04H226.407V16.96H217.207C218.647 15.98 220.247 14.42 221.307 12.98L219.287 12.22C218.427 13.34 217.007 14.46 215.707 15.2C216.047 15.6 216.667 16.46 216.967 16.96H216.567V19.04H220.267V23.02H215.027V25.1H227.867V23.02H222.647ZM247.587 16.72H239.727V10.66H246.427V8.3H230.507V10.66H237.247V16.72H229.467V19.14H237.247V25.74H239.727V19.14H247.587V16.72ZM231.727 11.94C232.367 13.28 232.987 15.04 233.187 16.1L235.507 15.38C235.287 14.26 234.567 12.58 233.907 11.3L231.727 11.94ZM243.407 16.06C244.067 15.04 244.887 13.42 245.607 11.88L243.067 11.24C242.687 12.54 241.967 14.3 241.327 15.46L243.407 16.06ZM262.667 19.22V22.42H254.187V19.22H262.667ZM251.747 25.72H254.187V24.7H262.667V25.7H265.227V16.94H251.747V25.72ZM260.127 10.14C260.867 10.88 261.667 11.72 262.447 12.6L254.247 12.86C255.767 11.4 257.347 9.62 258.607 7.76L256.207 6.74C254.847 9.14 252.667 11.56 251.967 12.18C251.307 12.82 250.827 13.2 250.307 13.34C250.587 13.96 250.967 15.14 251.087 15.62C252.147 15.26 253.567 15.22 264.187 14.7C264.607 15.26 264.967 15.78 265.227 16.22L267.247 14.76C266.207 13.08 263.827 10.62 261.987 8.9L260.127 10.14Z" fill="white"/>
</svg>
