<svg width="100" height="100" viewBox="0 0 100 100" fill="none" xmlns="http://www.w3.org/2000/svg">
<path fill-rule="evenodd" clip-rule="evenodd" d="M34.0518 16.3457L50.239 25.6853L50.239 40.6564L34.0518 50.0026V16.3457Z" fill="#16D94C"/>
<path fill-rule="evenodd" clip-rule="evenodd" d="M50.24 40.6564L66.4272 50.0031L50.24 59.3487L34.0518 50.0031L50.24 40.6564Z" fill="#50F59C"/>
<path fill-rule="evenodd" clip-rule="evenodd" d="M71.2887 37.8052L71.2898 37.8315L34.0518 16.3457L50.239 7L71.2827 19.1503L71.2837 19.1169L87.4719 28.4626L71.2887 37.8052Z" fill="#50F59C"/>
<path fill-rule="evenodd" clip-rule="evenodd" d="M66.4271 50.0027V83.6545L50.2397 74.3134L50.2398 59.3489L66.4271 50.0027Z" fill="#16D94C"/>
<path fill-rule="evenodd" clip-rule="evenodd" d="M29.1878 62.1938L29.1877 62.1665L66.4268 83.6544L50.2396 93L13.0005 71.5L29.1878 62.1938Z" fill="#50F59C"/>
<path fill-rule="evenodd" clip-rule="evenodd" d="M29.1892 19.1533L29.1882 62.1938L13 71.5L13.0009 28.5L29.1892 19.1533Z" fill="#12ACFF"/>
<path fill-rule="evenodd" clip-rule="evenodd" d="M87.4418 28.4788L87.4784 28.5V71.5L71.2901 80.8467L71.29 37.8042L87.4418 28.4788Z" fill="#12ACFF"/>
</svg>
