<svg xmlns="http://www.w3.org/2000/svg" viewBox="0 0 24 24" class="design-iconfont">
  <path fill-rule="evenodd" clip-rule="evenodd"
    d="M3 1.75C2.30964 1.75 1.75 2.30964 1.75 3V10C1.75 10.6904 2.30964 11.25 3 11.25H14C14.6904 11.25 15.25 10.6904 15.25 10V3C15.25 2.30964 14.6904 1.75 14 1.75H3ZM3.25 9.75V3.25H13.75V9.75H3.25Z" />
  <path fill-rule="evenodd" clip-rule="evenodd"
    d="M16.75 10C16.75 10.6904 17.3096 11.25 18 11.25H21C21.6904 11.25 22.25 10.6904 22.25 10V3C22.25 2.30964 21.6904 1.75 21 1.75H18C17.3096 1.75 16.75 2.30964 16.75 3V10ZM20.75 9.75H18.25V3.25H20.75V9.75Z" />
  <path fill-rule="evenodd" clip-rule="evenodd"
    d="M3 22.25C2.30964 22.25 1.75 21.6904 1.75 21V14C1.75 13.3096 2.30964 12.75 3 12.75H6C6.69036 12.75 7.25 13.3096 7.25 14V21C7.25 21.6904 6.69036 22.25 6 22.25H3ZM3.25 20.75H5.75V14.25H3.25V20.75Z" />
  <path fill-rule="evenodd" clip-rule="evenodd"
    d="M10 12.75C9.30964 12.75 8.75 13.3096 8.75 14V21C8.75 21.6904 9.30964 22.25 10 22.25H21C21.6904 22.25 22.25 21.6904 22.25 21V14C22.25 13.3096 21.6904 12.75 21 12.75H10ZM10.25 20.75V14.25H20.75V20.75H10.25Z" />
</svg>
