<?xml version="1.0" standalone="no"?><!DOCTYPE svg PUBLIC "-//W3C//DTD SVG 1.1//EN" "http://www.w3.org/Graphics/SVG/1.1/DTD/svg11.dtd"><svg t="1607067805666" class="icon" viewBox="0 0 1024 1024" version="1.1" xmlns="http://www.w3.org/2000/svg" p-id="1926" xmlns:xlink="http://www.w3.org/1999/xlink" width="280" height="280"><defs><style type="text/css"></style></defs><path d="M498.0224 17.664a25.6 25.6 0 0 1 25.6 25.6v204.8a25.6 25.6 0 1 1-51.2 0v-204.8a25.6 25.6 0 0 1 25.6-25.6zM255.6416 644.8128a25.6 25.6 0 0 1-8.192 35.2768l-130.2528 81.408a25.6 25.6 0 0 1-27.136-43.4688l130.304-81.408a25.6 25.6 0 0 1 35.2768 8.192zM732.0576 638.6176a25.6 25.6 0 0 1 35.2768-8.192l130.2528 81.408a25.6 25.6 0 0 1-27.136 43.4688l-130.2528-81.408a25.6 25.6 0 0 1-8.1408-35.2768z" p-id="1927"></path><path d="M536.4224 10.2912l370.0224 213.6576a76.8 76.8 0 0 1 38.4 66.5088v427.264a76.8 76.8 0 0 1-38.4 66.5088L536.4224 997.888a76.8 76.8 0 0 1-76.8 0L89.6 784.2304a76.8 76.8 0 0 1-38.4-66.56V290.5088a76.8 76.8 0 0 1 38.4-66.56L459.6224 10.3424a76.8 76.8 0 0 1 76.8 0z m-25.6 44.3392a25.6 25.6 0 0 0-25.6 0L115.2 268.288a25.6 25.6 0 0 0-12.8 22.1696v427.264a25.6 25.6 0 0 0 12.8 22.1696l370.0224 213.6576a25.6 25.6 0 0 0 25.6 0l370.0224-213.6576a25.6 25.6 0 0 0 12.8-22.1696V290.4576a25.6 25.6 0 0 0-12.8-22.1696L510.8224 54.6304z" p-id="1928"></path><path d="M447.7952 513.6896L255.4368 413.5424a25.9584 25.9584 0 0 0-12.1344-2.9184 27.4944 27.4944 0 0 0-26.88 27.9552v195.6864c0 20.4288 10.8544 38.7584 28.6208 47.9744l192.3584 100.096a26.624 26.624 0 0 0 12.1344 3.328c13.824 0 26.8288-12.0832 26.8288-28.3648V561.664c0-20.0192-10.8032-38.8096-28.5696-47.9744z m304.9984-103.0656a25.9584 25.9584 0 0 0-12.1344 2.9184l-192.3584 100.5568c-17.7664 9.216-28.6208 27.9552-28.6208 48.384v194.816c0 16.2816 13.0048 28.3648 26.88 28.3648 3.8912 0 8.192-0.8192 12.1344-2.9184l192.3584-100.5056c17.3056-9.216 28.5696-27.5456 28.5696-47.9744V438.5792a27.4944 27.4944 0 0 0-26.8288-27.9552z m-29.9008-43.008c9.0624-4.5568 13.4144-12.4928 12.544-19.968 0.8704-7.936-3.4816-15.4624-12.544-20.0192L527.0528 229.1712c-8.704-4.608-18.6368-6.656-29.0304-6.656-10.3936 0-20.3264 2.048-29.44 6.656L272.3328 327.168a21.248 21.248 0 0 0-12.5952 20.48c-0.4096 7.4752 3.4816 15.4112 12.5952 19.968l195.7888 98.0992c8.704 4.608 19.0976 6.656 29.4912 6.656h0.8704c10.3936 0 20.3264-2.048 29.44-6.656L722.944 367.616z" p-id="1929"></path></svg>