<?xml version="1.0" standalone="no"?><!DOCTYPE svg PUBLIC "-//W3C//DTD SVG 1.1//EN" "http://www.w3.org/Graphics/SVG/1.1/DTD/svg11.dtd"><svg class="icon" width="16px" height="16.00px" viewBox="0 0 1024 1024" version="1.1" xmlns="http://www.w3.org/2000/svg"><path d="M800.704 891.328a31.36 31.36 0 0 1-44.8-6.464 33.728 33.728 0 0 1 6.272-46.272C865.856 757.952 928 632.064 928 495.488c0-237.184-186.24-429.44-416-429.44S96 258.304 96 495.488c0 136.576 62.08 262.4 165.76 343.04 14.144 11.008 16.96 31.744 6.336 46.336a31.36 31.36 0 0 1-44.8 6.464C103.68 798.272 32 652.992 32 495.488 32 221.824 246.912 0 512 0c265.088 0 480 221.824 480 495.488 0 157.504-71.68 302.784-191.296 395.84z m-78.72-104.192a31.36 31.36 0 0 1-44.8-6.784 33.728 33.728 0 0 1 6.592-46.208A300.032 300.032 0 0 0 800 495.424c0-164.16-128.96-297.216-288-297.216s-288 133.12-288 297.28c0 94.72 43.136 181.952 115.136 237.76 14.08 11.008 16.96 31.68 6.336 46.272a31.36 31.36 0 0 1-44.8 6.528A366.848 366.848 0 0 1 160 495.488c0-200.704 157.568-363.328 352-363.328s352 162.624 352 363.328a366.784 366.784 0 0 1-142.08 291.648zM512 594.56c-52.992 0-96-44.352-96-99.072 0-54.72 43.008-99.072 96-99.072s96 44.352 96 99.072c0 54.72-43.008 99.072-96 99.072z m0 429.44c-66.688 0-96-55.68-96-165.12s53.12-198.208 96-198.208 96 88.704 96 198.144C608 968.32 578.688 1024 512 1024z" /></svg>