<svg width="12" height="12" viewBox="0 0 12 12" xmlns="http://www.w3.org/2000/svg">
	<path
		d="M9.2685 9.7835C8.36122 10.5697 7.20051 11.0017 6 11C3.2385 11 1 8.7615 1 6C1 3.2385 3.2385 1 6 1C8.7615 1 11 3.2385 11 6C11 7.068 10.665 8.058 10.095 8.87L8.5 6H10C9.99992 5.0781 9.68141 4.18453 9.09834 3.47044C8.51526 2.75636 7.70343 2.2656 6.80017 2.08118C5.8969 1.89676 4.95767 2.03001 4.14134 2.45838C3.32501 2.88676 2.68171 3.58396 2.32026 4.43204C1.95881 5.28013 1.9014 6.22703 2.15775 7.11257C2.41409 7.99811 2.96845 8.76792 3.72704 9.29178C4.48564 9.81564 5.4019 10.0614 6.32082 9.98744C7.23975 9.9135 8.10493 9.52441 8.77 8.886L9.2685 9.7835Z" />
</svg>
