<?xml version="1.0" standalone="no"?><!DOCTYPE svg PUBLIC "-//W3C//DTD SVG 1.1//EN" "http://www.w3.org/Graphics/SVG/1.1/DTD/svg11.dtd"><svg class="icon" width="16px" height="16.00px" viewBox="0 0 1024 1024" version="1.1" xmlns="http://www.w3.org/2000/svg"><path d="M224 771.2h224c16 0 28.8 12.8 32 25.6 3.2 19.2 19.2 28.8 32 25.6 12.8 0 28.8-6.4 32-25.6 3.2-16 16-28.8 32-28.8h224c54.4 0 96-44.8 96-99.2V227.2C896 172.8 854.4 128 800 128h-224c-25.6 0-44.8 9.6-64 25.6-16-16-38.4-25.6-64-25.6H224C172.8 128 128 172.8 128 227.2V672c0 54.4 44.8 99.2 96 99.2zM576 192h224c19.2 0 32 16 32 32v448c0 19.2-12.8 32-32 32h-224c-12.8 0-22.4 3.2-32 6.4V233.6c0-22.4 16-41.6 32-41.6zM192 227.2c0-19.2 12.8-32 32-32h224c19.2 0 32 16 32 32v483.2c-9.6-3.2-22.4-6.4-32-6.4H224c-19.2 0-32-16-32-32V227.2z m768 64c-19.2 0-32 16-32 32v457.6c0 19.2-12.8 32-32 32h-224c-35.2 0-67.2 19.2-83.2 48h-150.4c-16-28.8-48-48-83.2-48H128c-19.2 0-32-16-32-32V323.2c0-19.2-12.8-32-32-32s-32 16-32 32v457.6c0 54.4 41.6 99.2 96 99.2h224c16 0 28.8 9.6 32 25.6 3.2 16 16 25.6 32 25.6h192c16 0 28.8-9.6 32-25.6 3.2-16 16-25.6 32-25.6h224c54.4 0 96-44.8 96-99.2V323.2c0-16-12.8-32-32-32zM272 339.2H384c19.2 0 32-16 32-32 0-19.2-12.8-32-32-32H272c-19.2 0-32 16-32 32 0 19.2 16 32 32 32z m0 131.2H384c19.2 0 32-16 32-32s-12.8-32-32-32H272c-19.2 0-32 16-32 32s16 32 32 32zM224 771.2h224c16 0 28.8 12.8 32 25.6 3.2 19.2 19.2 28.8 32 25.6 12.8 0 28.8-6.4 32-25.6 3.2-16 16-28.8 32-28.8h224c54.4 0 96-44.8 96-99.2V227.2C896 172.8 854.4 128 800 128h-224c-25.6 0-44.8 9.6-64 25.6-16-16-38.4-25.6-64-25.6H224C172.8 128 128 172.8 128 227.2V672c0 54.4 44.8 99.2 96 99.2zM576 192h224c19.2 0 32 16 32 32v448c0 19.2-12.8 32-32 32h-224c-12.8 0-22.4 3.2-32 6.4V233.6c0-22.4 16-41.6 32-41.6zM192 227.2c0-19.2 12.8-32 32-32h224c19.2 0 32 16 32 32v483.2c-9.6-3.2-22.4-6.4-32-6.4H224c-19.2 0-32-16-32-32V227.2z m768 64c-19.2 0-32 16-32 32v457.6c0 19.2-12.8 32-32 32h-224c-35.2 0-67.2 19.2-83.2 48h-150.4c-16-28.8-48-48-83.2-48H128c-19.2 0-32-16-32-32V323.2c0-19.2-12.8-32-32-32s-32 16-32 32v457.6c0 54.4 41.6 99.2 96 99.2h224c16 0 28.8 9.6 32 25.6 3.2 16 16 25.6 32 25.6h192c16 0 28.8-9.6 32-25.6 3.2-16 16-25.6 32-25.6h224c54.4 0 96-44.8 96-99.2V323.2c0-16-12.8-32-32-32zM272 339.2H384c19.2 0 32-16 32-32s-12.8-32-32-32H272c-19.2 0-32 16-32 32s16 32 32 32z m0 131.2H384c19.2 0 32-16 32-32s-12.8-32-32-32H272c-19.2 0-32 16-32 32s16 32 32 32z" /></svg>