<?xml version="1.0" standalone="no"?><!DOCTYPE svg PUBLIC "-//W3C//DTD SVG 1.1//EN" "http://www.w3.org/Graphics/SVG/1.1/DTD/svg11.dtd"><svg class="icon" width="280px" height="256.69px" viewBox="0 0 1117 1024" version="1.1" xmlns="http://www.w3.org/2000/svg"><path d="M565.899636 334.475636h495.709091c17.314909 0 31.371636 13.963636 31.371637 30.906182 0 17.035636-14.056727 30.906182-31.371637 30.906182H565.992727a31.185455 31.185455 0 0 1-31.371636-30.906182c0-17.035636 14.056727-30.906182 31.371636-30.906182z m0 246.970182h495.709091c17.314909 0 31.371636 13.963636 31.371637 30.906182 0 17.035636-14.056727 30.906182-31.371637 30.906182H565.992727a31.185455 31.185455 0 0 1-31.371636-30.906182c0-17.128727 14.056727-30.906182 31.371636-30.906182z m0 246.877091h495.709091c17.314909 0 31.371636 13.870545 31.371637 30.906182 0 17.035636-14.056727 30.906182-31.371637 30.906182H565.992727a31.185455 31.185455 0 0 1-31.371636-30.906182c0-17.035636 14.056727-30.906182 31.371636-30.906182zM404.759273 429.521455H92.16c-18.618182 0-33.605818-14.894545-33.605818-33.233455V87.691636c0-18.245818 14.894545-33.140364 33.512727-33.140363h312.692364c18.618182 0 33.512727 14.894545 33.512727 33.140363v308.503273c0 18.338909-14.894545 33.326545-33.512727 33.326546zM125.672727 363.054545h245.480728V120.832H125.672727v242.315636z m279.086546 559.941819H92.16c-18.618182 0-33.605818-14.894545-33.605818-33.140364V581.445818c0-18.245818 14.894545-33.140364 33.512727-33.140363h312.692364c18.618182 0 33.512727 14.894545 33.512727 33.140363v308.689455c0 18.245818-14.894545 32.954182-33.512727 32.954182zM125.672727 856.808727h245.480728V614.679273H125.672727v242.036363zM565.992727 87.691636h495.709091c17.314909 0 31.371636 13.963636 31.371637 30.906182 0 17.035636-14.056727 30.906182-31.371637 30.906182H565.992727a31.185455 31.185455 0 0 1-31.371636-30.906182c0-17.035636 14.056727-30.906182 31.371636-30.906182z" /></svg>