<?xml version="1.0" standalone="no"?><!DOCTYPE svg PUBLIC "-//W3C//DTD SVG 1.1//EN" "http://www.w3.org/Graphics/SVG/1.1/DTD/svg11.dtd"><svg class="icon" width="16px" height="16.00px" viewBox="0 0 1024 1024" version="1.1" xmlns="http://www.w3.org/2000/svg"><path d="M736.768 947.768889H287.232a62.691556 62.691556 0 0 1-62.464-62.520889V222.72h574.464v662.528c0 34.304-28.16 62.464-62.464 62.464zM349.696 95.004444c0-7.111111 5.632-12.743111 12.8-12.743111h300.032c7.168 0 12.8 5.632 12.8 12.8v53.475556H349.696v-53.475556z m399.872 53.475556v-53.475556c0-48.071111-39.424-87.04-87.04-87.04H362.496c-48.128 0-87.04 39.480889-87.04 87.04v53.475556H37.376A37.262222 37.262222 0 0 0 0 185.856c0 20.48 16.896 37.376 37.376 37.376h112.128v661.504a137.784889 137.784889 0 0 0 137.728 137.728h449.536a137.784889 137.784889 0 0 0 137.728-137.671111V222.663111h112.128a37.148444 37.148444 0 0 0 0-74.24h-237.056zM549.376 797.696V397.312A37.262222 37.262222 0 0 0 512 359.936a37.262222 37.262222 0 0 0-37.376 37.376v399.928889a37.376 37.376 0 1 0 74.752 0.455111z m-175.104 0V397.312a37.262222 37.262222 0 0 0-37.376-37.376 37.262222 37.262222 0 0 0-37.376 37.376v399.928889a38.4 38.4 0 0 0 37.376 37.831111 37.262222 37.262222 0 0 0 37.376-37.376z m350.208 0V397.312a37.262222 37.262222 0 0 0-37.376-37.376 37.262222 37.262222 0 0 0-37.376 37.376v399.928889c0 20.935111 16.896 37.831111 37.376 37.831111a37.262222 37.262222 0 0 0 37.376-37.376z" /></svg>