<?xml version="1.0" standalone="no"?><!DOCTYPE svg PUBLIC "-//W3C//DTD SVG 1.1//EN" "http://www.w3.org/Graphics/SVG/1.1/DTD/svg11.dtd"><svg t="1605779771284" class="icon" viewBox="0 0 1024 1024" version="1.1" xmlns="http://www.w3.org/2000/svg" p-id="2304" xmlns:xlink="http://www.w3.org/1999/xlink" width="200" height="200"><defs><style type="text/css"></style></defs><path d="M678.912 754.688c-50.688 36.352-109.568 54.272-169.984 53.248-8.192 0-15.872-0.512-24.064-1.024-3.072-0.512-6.144-1.024-9.728-1.024-6.144-1.024-12.288-1.536-18.432-3.072-3.584-0.512-7.168-1.536-11.264-2.56-6.144-1.536-11.776-3.072-17.408-4.608-2.56-1.024-5.632-2.048-8.192-3.072-6.656-2.048-13.312-4.608-19.456-7.168-1.536-0.512-3.072-1.536-4.096-2.048-7.68-3.584-14.848-6.656-22.016-10.752-0.512 0-0.512-0.512-1.024-0.512-24.576-13.824-46.592-30.72-66.048-50.688l-1.024-1.024c-6.144-6.144-11.776-12.8-17.408-19.456-1.024-1.536-2.048-3.072-3.584-4.608-39.936-50.688-64-114.688-64-184.32h67.584c1.536 0 3.584-1.024 4.096-2.56 1.024-1.536 0.512-3.584 0-5.12L179.2 331.264c-1.024-1.536-2.56-2.048-4.096-2.048-1.536 0-3.072 1.024-4.096 2.048L57.856 504.32c-1.024 1.536-1.024 3.584 0 5.12 1.024 1.536 2.56 2.56 4.096 2.56h67.584c0 81.92 25.088 158.208 67.584 220.672 0.512 1.024 1.024 2.048 1.536 2.56 4.608 6.656 9.216 12.288 13.824 18.432 1.536 2.048 3.584 4.608 5.12 7.168 7.168 8.704 14.336 16.896 22.016 24.576 0.512 1.024 1.536 1.536 2.048 2.048 25.6 26.112 54.272 48.128 86.016 65.536 0.512 0.512 1.536 1.024 2.56 1.536 9.216 5.12 18.432 9.216 27.648 13.824 2.56 1.024 4.608 2.048 7.168 3.072 8.192 3.584 16.384 6.144 24.576 9.216 4.096 1.536 7.68 2.56 11.776 4.096 7.168 2.048 14.848 4.096 22.528 5.632 5.12 1.024 9.728 2.56 14.848 3.584l6.144 1.536 21.504 3.072c2.56 0.512 5.12 0.512 7.68 1.024 12.8 1.536 25.6 2.048 38.4 2.048 77.824 0 153.6-24.064 218.624-70.656 20.992-14.848 25.6-44.032 11.264-65.024s-43.008-26.112-63.488-11.264m215.552-242.688c0-81.92-25.088-157.696-67.584-220.16l-1.536-3.072c-5.12-7.68-11.264-14.848-16.896-22.016-0.512-1.024-1.536-2.048-2.048-2.56-38.912-48.128-87.552-84.992-142.848-109.056-1.536-0.512-3.072-1.536-4.608-2.048-8.704-3.584-17.92-7.168-27.136-10.24-3.072-1.024-6.656-2.048-9.728-3.072-7.68-2.56-15.872-4.608-24.064-6.144-4.608-1.024-8.704-2.048-13.312-3.072-2.048-0.512-4.096-1.024-6.656-1.536-6.144-1.024-12.288-1.536-18.432-2.56l-12.288-1.536c-10.24-1.024-20.48-1.536-30.208-1.536-2.048 0-3.584-0.512-5.632-0.512h-1.024c-77.824 0-153.6 24.064-218.624 70.144-20.992 14.848-25.6 44.032-11.264 65.024s43.008 26.112 64 11.264c50.176-35.84 108.544-53.76 168.96-53.248 8.704 0 17.408 0.512 25.6 1.536 2.56 0.512 5.12 0.512 7.68 1.024 6.656 1.024 13.824 2.048 20.48 3.072 3.072 0.512 5.632 1.536 8.704 2.048 6.656 1.536 13.312 3.072 19.968 5.12 2.048 0.512 4.096 1.536 6.144 2.048 7.168 2.56 14.848 5.12 22.016 8.192 0.512 0.512 1.536 0.512 2.048 1.024 43.008 18.944 80.384 47.616 109.568 83.968l0.512 0.512c40.96 51.2 66.048 116.736 66.048 187.392h-67.584c-1.536 0-3.584 1.024-4.096 2.56-1.024 1.536-0.512 3.584 0 5.12l113.152 173.056c1.024 1.536 2.56 2.048 4.096 2.048 1.536 0 3.072-1.024 4.096-2.048l113.152-173.056c1.024-1.536 1.024-3.584 0-5.12-1.024-1.536-2.56-2.56-4.096-2.56h-66.56z" p-id="2305"></path></svg>