<?xml version="1.0" standalone="no"?><!DOCTYPE svg PUBLIC "-//W3C//DTD SVG 1.1//EN" "http://www.w3.org/Graphics/SVG/1.1/DTD/svg11.dtd"><svg class="icon" width="16px" height="16.00px" viewBox="0 0 1024 1024" version="1.1" xmlns="http://www.w3.org/2000/svg"><path d="M170.666667 917.333333h682.666666v-42.666666H170.666667v42.666666z m35.84-260.266666c26.026667 0 47.36-21.333333 47.36-47.36 0-5.12-1.28-10.24-2.986667-14.933334l115.2-199.68c2.133333 0.426667 3.84 1.28 6.4 1.28 9.813333 0 18.346667-3.84 25.6-8.533333l232.533333 134.4a37.546667 37.546667 0 0 0-2.56 12.373333c0 26.026667 21.333333 47.36 47.36 47.36 26.026667 0 47.36-21.333333 47.36-47.36 0-10.666667-4.266667-19.626667-9.813333-27.733333l75.093333-130.133333c2.133333 0.426667 3.84 1.28 5.973334 1.28 26.026667 0 47.36-21.333333 47.36-47.36 0-26.026667-21.333333-47.36-47.36-47.36s-47.36 21.333333-47.36 47.36c0 9.813333 3.84 18.773333 8.96 26.453333l-75.946667 130.986667c-1.706667 0-2.986667-0.853333-4.693333-0.853334-7.68 0-14.506667 2.133333-20.906667 5.12l-236.373333-136.533333c0.426667-2.133333 1.28-4.266667 1.28-6.4 0-26.026667-21.333333-47.36-47.36-47.36-26.026667 0-47.36 21.333333-47.36 47.36 0 9.813333 3.84 18.346667 8.96 26.026667l-110.08 190.72c-5.546667-2.133333-11.093333-3.413333-17.493334-3.413334-26.026667 0-47.36 21.333333-47.36 47.36 0.853333 25.6 22.186667 46.933333 48.213334 46.933334zM42.666667 106.666667v682.666666h938.666666v-682.666666H42.666667z m896 640H85.333333v-597.333334h853.333334v597.333334z" /></svg>