<?xml version="1.0" standalone="no"?><!DOCTYPE svg PUBLIC "-//W3C//DTD SVG 1.1//EN" "http://www.w3.org/Graphics/SVG/1.1/DTD/svg11.dtd"><svg class="icon" width="280px" height="280.00px" viewBox="0 0 1024 1024" version="1.1" xmlns="http://www.w3.org/2000/svg"><path d="M548.312615 73.964308h286.877539a30.956308 30.956308 0 0 1 0 61.755077H548.233846a30.956308 30.956308 0 0 1 0-61.755077zM117.838769 691.515077a33.161846 33.161846 0 0 1-33.161846-33.083077v-549.021538C84.676923 91.136 99.485538 76.169846 117.838769 76.169846L400.147692 73.964308c18.432 0 33.161846 14.966154 33.161846 33.083077v549.021538a33.240615 33.240615 0 0 1-33.083076 33.240615l-282.387693 2.284308z m33.161846-66.244923l215.985231-2.284308V140.288l-215.985231 2.205538v482.776616z m399.596308 255.606154a33.161846 33.161846 0 0 1-33.161846-33.161846V300.898462c0-18.274462 14.729846-33.161846 33.083077-33.161847h282.387692c18.432 0 33.161846 14.966154 33.161846 33.083077v546.973539a33.083077 33.083077 0 0 1-33.161846 33.083077H550.596923z m33.083077-66.402462h216.064v-480.492308H583.68v480.492308z m-468.125538 4.568616H402.510769a30.956308 30.956308 0 0 1 0 61.833846H115.554462a30.956308 30.956308 0 0 1 0-61.833846z" /></svg>