<?xml version="1.0" standalone="no"?><!DOCTYPE svg PUBLIC "-//W3C//DTD SVG 1.1//EN" "http://www.w3.org/Graphics/SVG/1.1/DTD/svg11.dtd"><svg class="icon" width="16px" height="16.00px" viewBox="0 0 1024 1024" version="1.1" xmlns="http://www.w3.org/2000/svg"><path d="M874.5 783.8c-29.7 0-55.2 14.9-72.1 36.1l-74.3-63.7c33.9-44.6 55.2-101.9 55.2-163.5 0-146.5-116.7-265.4-261-269.6v-80.7c44.5-4.2 80.6-42.5 80.6-89.2 0-48.8-40.3-89.2-89.1-89.2s-89.1 40.3-89.1 89.2c0 46.7 36.1 84.9 80.6 89.2V323c-144.3 6.4-261 123.1-261 269.6 0 61.6 21.2 118.9 55.2 163.5l-74.3 61.6c-17-21.2-42.4-36.1-72.1-36.1-48.8 0-89.1 40.3-89.1 89.2 0 48.8 40.3 89.2 89.1 89.2s89.1-40.3 89.1-89.2c0-12.7-2.1-25.5-8.5-38.2l76.4-63.7c48.8 55.2 120.9 91.3 201.6 91.3 80.6 0 152.8-36.1 201.6-91.3l76.4 63.7c-4.2 10.6-8.5 23.4-8.5 38.2 0 48.8 40.3 89.2 89.1 89.2s89.1-40.3 89.1-89.2c6.3-46.7-34-87-84.9-87zM656.9 561L495.8 789.2c-1.7 1.7-3.6 2.5-5.9 2.5-1.1 0-2-0.3-2.5-0.8-3.9-1.1-5.3-3.4-4.2-6.7l26-153.5H395.9c-2.8 0-4.8-1.1-5.9-3.4-1.7-2.2-1.4-4.7 0.8-7.6l174.5-228.2c2.2-3.4 4.8-3.9 7.6-1.7 2.8 0.6 4.2 2.8 4.2 6.7l-26 153.5H651c2.8 0 4.8 1.1 5.9 3.4 0.5 2.3 0.5 4.8 0 7.6z" /></svg>