<?xml version="1.0" standalone="no"?><!DOCTYPE svg PUBLIC "-//W3C//DTD SVG 1.1//EN" "http://www.w3.org/Graphics/SVG/1.1/DTD/svg11.dtd"><svg class="icon" width="16px" height="16.00px" viewBox="0 0 1024 1024" version="1.1" xmlns="http://www.w3.org/2000/svg"><path d="M1016.218 493.107L804.659 281.395a26.573 26.573 0 0 0-37.58 0l-42.753 42.803a26.624 26.624 0 0 0 0 37.581l93.338 93.389H392.192a26.573 26.573 0 0 0-26.522 26.573v60.518c0 14.695 11.879 26.624 26.522 26.624h425.216l-93.338 93.338a26.624 26.624 0 0 0 0 37.58l42.752 42.804a26.573 26.573 0 0 0 37.581 0l168.96-169.114 42.803-42.803a26.624 26.624 0 0 0 0-37.58zM651.776 0H79.667C35.635 0 0 35.686 0 79.718v864.564C0 988.314 35.686 1024 79.667 1024h572.109c44.032 0 79.667-35.686 79.667-79.718v-112.18a26.573 26.573 0 0 0-26.521-26.624h-57.6a26.573 26.573 0 0 0-26.573 26.624v42.65c0 39.322 0 39.322-39.783 39.322H149.402c-39.834 0-39.834 0-39.834-39.834V148.838c0-39.936-0.102-39.833 39.834-39.833h431.513c39.834 0 39.783 0.307 39.783 39.321v43.93c0 14.643 11.93 26.573 26.624 26.573h57.548a26.573 26.573 0 0 0 26.522-26.624V79.77c0-44.084-35.584-79.77-79.616-79.77z" /></svg>