<?xml version="1.0" standalone="no"?><!DOCTYPE svg PUBLIC "-//W3C//DTD SVG 1.1//EN" "http://www.w3.org/Graphics/SVG/1.1/DTD/svg11.dtd"><svg class="icon" width="16px" height="16.00px" viewBox="0 0 1024 1024" version="1.1" xmlns="http://www.w3.org/2000/svg"><path d="M446.683103 955.739037a382.687398 382.687398 0 0 0 133.748789 66.767895 278.589562 278.589562 0 0 0 29.009955 1.492998H204.784483a34.129946 34.129946 0 0 1 0-68.260893z m318.266499-569.979104h3.199995a308.240515 308.240515 0 0 1 123.295806 66.980895l6.185991 5.546991a33.703947 33.703947 0 0 1 10.239984 27.729957l-6.39999 57.38291a8.319987 8.319987 0 0 0 4.905992 8.318987l53.542916 24.317961a33.489947 33.489947 0 0 1 18.98497 19.837969l2.345996 1.492998a290.535543 290.535543 0 0 1 1.919997 136.735785l-1.919997 7.891987a34.983945 34.983945 0 0 1-21.330966 23.464963l-53.542916 23.891963a8.105987 8.105987 0 0 0-4.905992 8.318987l6.39999 57.16791a32.849948 32.849948 0 0 1-8.319987 25.811959l-1.919997 2.132997a309.733513 309.733513 0 0 1-121.375809 69.96689l-8.105988 2.346996a21.331966 21.331966 0 0 1-6.18599 0h-3.199995a37.116942 37.116942 0 0 1-21.331966-6.39999l-47.995925-34.129946a8.319987 8.319987 0 0 0-9.811985 0l-47.995924 34.129946a36.263943 36.263943 0 0 1-26.877958 5.759991h-3.199995a310.587512 310.587512 0 0 1-123.295806-66.767895l-6.18599-5.759991a33.489947 33.489947 0 0 1-10.239984-27.729956l6.39999-57.16991a7.679988 7.679988 0 0 0-4.905992-8.317987l-53.755916-23.251964a35.196945 35.196945 0 0 1-18.98497-20.051968v-2.559996a287.762548 287.762548 0 0 1-2.132997-136.734785l2.132997-8.105987a34.129946 34.129946 0 0 1 18.98497-21.970966l54.395915-23.251963a7.892988 7.892988 0 0 0 5.332991-8.745986l-6.39999-57.38091a32.849948 32.849948 0 0 1 8.319987-25.81196l1.919997-1.919997a307.600516 307.600516 0 0 1 121.375809-70.179889l8.105988-2.346997a36.049943 36.049943 0 0 1 30.076952 5.332992l47.569925 34.983945a8.319987 8.319987 0 0 0 9.811985 0l47.995925-33.916947a35.409944 35.409944 0 0 1 23.891962-6.39999h2.985995zM853.262463 0.08554a165.53274 165.53274 0 0 1 170.651732 159.13375v400.60637a4.692993 4.692993 0 0 0 0-1.706998l-68.259893-28.796954V461.700814l1.492998-12.79998a40.529936 40.529936 0 0 0-1.493998-15.997975V159.21929a97.271847 97.271847 0 0 0-102.390839-90.872857h-682.608926A97.271847 97.271847 0 0 0 68.260698 159.21929v568.912105a97.271847 97.271847 0 0 0 102.391839 91.085857h239.339623a9.172986 9.172986 0 0 1 5.972991 8.531987v1.493997l-6.61299 58.234909h-238.699624A165.53274 165.53274 0 0 1 0.000805 728.130395V159.21929A165.53274 165.53274 0 0 1 170.653537 0.08554z m-88.312861 456.069283l-33.703947 23.889962a79.566875 79.566875 0 0 1-92.151855 0l-33.703947-23.889962a241.47262 241.47262 0 0 0-72.099886 40.315936l4.691992 40.102937a75.299882 75.299882 0 0 1-46.075927 77.433879l-38.18394 16.211974a221.634652 221.634652 0 0 0 0 80.419874l38.18394 16.424974a75.086882 75.086882 0 0 1 46.075927 77.219878l-4.692992 40.103937a241.47262 241.47262 0 0 0 71.887887 40.316937l34.769945-23.891962a78.926876 78.926876 0 0 1 41.596934-14.504978h4.479993a78.926876 78.926876 0 0 1 46.074928 14.718977l33.703947 23.890963a241.47262 241.47262 0 0 0 71.887887-40.316937l-5.759991-40.315937a74.659883 74.659883 0 0 1 46.075928-77.219878l39.249938-16.425974a221.634652 221.634652 0 0 0 0-80.419874l-38.18294-16.211974a75.086882 75.086882 0 0 1-47.142926-77.433879l4.479993-40.102937a241.47262 241.47262 0 0 0-71.459888-40.316936z m-79.779874 75.725881a138.654782 138.654782 0 1 1-142.921776 138.441782A141.001778 141.001778 0 0 1 685.169728 531.880704z m0 67.407894a71.246888 71.246888 0 1 0 73.379884 74.659882v-3.625994a72.526886 72.526886 0 0 0-69.96689-71.033888z" /></svg>