<?xml version="1.0" standalone="no"?><!DOCTYPE svg PUBLIC "-//W3C//DTD SVG 1.1//EN" "http://www.w3.org/Graphics/SVG/1.1/DTD/svg11.dtd"><svg class="icon" width="16px" height="16.00px" viewBox="0 0 1024 1024" version="1.1" xmlns="http://www.w3.org/2000/svg"><path d="M636.416 63.616H381.824v891.008h254.592V63.616z m63.616 0v891.008h222.72a31.808 31.808 0 0 0 31.872-31.872V95.488a31.808 31.808 0 0 0-31.872-31.872h-222.72z m-381.824 0h-222.72a31.808 31.808 0 0 0-31.872 31.872v827.264c0 17.6 14.272 31.872 31.872 31.872h222.72V63.616zM954.624 0c35.136 0 63.616 28.48 63.616 63.616v891.008c0 35.136-28.48 63.616-63.616 63.616H63.616A63.616 63.616 0 0 1 0 954.624V63.616C0 28.48 28.48 0 63.616 0h891.008zM190.912 222.72a31.808 31.808 0 0 1 0-63.616 31.808 31.808 0 0 1 0 63.616z m0 95.488a31.808 31.808 0 0 1 0-63.616 31.808 31.808 0 0 1 0 63.616z m0 95.424a31.808 31.808 0 1 1 0-63.616 31.808 31.808 0 0 1 0 63.616z m-31.808 127.36h63.616a31.808 31.808 0 0 1 0 63.616h-63.616a31.808 31.808 0 0 1 0-63.68z m0 254.528h63.616a31.808 31.808 0 0 1 0 63.616h-63.616a31.808 31.808 0 0 1 0-63.616z m0-127.36h63.616a31.808 31.808 0 0 1 0 63.68h-63.616a31.808 31.808 0 0 1 0-63.616z m318.208-127.232h63.616a31.808 31.808 0 0 1 0 63.68h-63.616a31.808 31.808 0 0 1 0-63.68z m0 254.592h63.616a31.808 31.808 0 0 1 0 63.616h-63.616a31.808 31.808 0 0 1 0-63.616z m0-127.36h63.616a31.808 31.808 0 0 1 0 63.68h-63.616a31.808 31.808 0 0 1 0-63.616z m318.208-127.232h63.616a31.808 31.808 0 0 1 0 63.68h-63.616a31.808 31.808 0 0 1 0-63.68z m0 254.592h63.616a31.808 31.808 0 0 1 0 63.616h-63.616a31.808 31.808 0 0 1 0-63.616z m0-127.36h63.616a31.808 31.808 0 0 1 0 63.68h-63.616a31.808 31.808 0 0 1 0-63.616zM509.12 222.72a31.808 31.808 0 1 1-0.384-63.616h0.384a31.808 31.808 0 0 1 0 63.616z m0 95.488a31.808 31.808 0 0 1 0-63.616 31.808 31.808 0 0 1 0 63.616z m0 95.424a31.808 31.808 0 1 1 0-63.616 31.808 31.808 0 0 1 0 63.616z m318.208-190.912a31.808 31.808 0 1 1-0.448-63.616h0.448a31.808 31.808 0 0 1 0 63.616z m0 95.488a31.808 31.808 0 0 1 0-63.616 31.808 31.808 0 0 1 0 63.616z m0 95.424a31.808 31.808 0 1 1 0-63.616 31.808 31.808 0 0 1 0 63.616z" /></svg>