<?xml version="1.0" standalone="no"?><!DOCTYPE svg PUBLIC "-//W3C//DTD SVG 1.1//EN" "http://www.w3.org/Graphics/SVG/1.1/DTD/svg11.dtd"><svg class="icon" width="16px" height="16.00px" viewBox="0 0 1024 1024" version="1.1" xmlns="http://www.w3.org/2000/svg"><path d="M216 361.8c17.7 0 32-14.3 32-32v-57c0-17.7-14.3-32-32-32s-32 14.3-32 32v57c0 17.6 14.3 32 32 32zM336 361.8c17.7 0 32-14.3 32-32v-57c0-17.7-14.3-32-32-32s-32 14.3-32 32v57c0 17.6 14.3 32 32 32zM718.5 333.3h57c17.7 0 32-14.3 32-32s-14.3-32-32-32h-57c-17.7 0-32 14.3-32 32s14.3 32 32 32zM216 786.4c17.7 0 32-14.3 32-32v-57c0-17.7-14.3-32-32-32s-32 14.3-32 32v57c0 17.6 14.3 32 32 32zM336 786.4c17.7 0 32-14.3 32-32v-57c0-17.7-14.3-32-32-32s-32 14.3-32 32v57c0 17.6 14.3 32 32 32zM718.5 757.9h57c17.7 0 32-14.3 32-32s-14.3-32-32-32h-57c-17.7 0-32 14.3-32 32s14.3 32 32 32zM916.2 125.8H108.1c-24.2 0-44 19.8-44 44v263c0 24.2 19.8 44 44 44h808.1c24.2 0 44-19.8 44-44v-263c0-24.2-19.8-44-44-44z m-20 287H128.1v-223h768.1v223zM916.2 550H108.1c-24.2 0-44 19.8-44 44v263c0 24.2 19.8 44 44 44h808.1c24.2 0 44-19.8 44-44V594c0-24.2-19.8-44-44-44z m-20 287H128.1V614h768.1v223z" /></svg>