<?xml version="1.0" standalone="no"?><!DOCTYPE svg PUBLIC "-//W3C//DTD SVG 1.1//EN" "http://www.w3.org/Graphics/SVG/1.1/DTD/svg11.dtd"><svg class="icon" width="16px" height="16.00px" viewBox="0 0 1024 1024" version="1.1" xmlns="http://www.w3.org/2000/svg"><path d="M0 0v239.689143h1024V0H0z m183.149714 171.885714H72.484571V67.803429h110.665143V171.885714z m164.425143 0H236.982857V67.803429h110.665143V171.885714z m164.498286 0H401.334857V67.803429H512V171.885714zM0 392.192v239.689143h1024V392.192H0zM183.149714 563.931429H72.484571V460.068571h110.665143V563.931429z m164.425143 0H236.982857V460.068571h110.665143V563.931429z m164.498286 0H401.334857V460.068571H512V563.931429zM0 784.310857V1024h1024v-239.689143H0z m183.149714 171.885714H72.484571V852.114286h110.665143v104.009143z m164.425143 0H236.982857V852.114286h110.665143v104.009143z m164.498286 0H401.334857V852.114286H512v104.009143z" /></svg>